<?xml version="1.0" standalone="no"?>
<!DOCTYPE svg PUBLIC "-//W3C//DTD SVG 1.1//EN" "http://www.w3.org/Graphics/SVG/1.1/DTD/svg11.dtd" >
<svg xmlns="http://www.w3.org/2000/svg">
<metadata></metadata>
<defs>
<font id="artisanregular" horiz-adv-x="1228" >
<font-face units-per-em="2048" ascent="1536" descent="-512" />
<missing-glyph horiz-adv-x="500" />
<glyph horiz-adv-x="0" />
<glyph horiz-adv-x="682" />
<glyph unicode=" " />
<glyph unicode="!" d="M449 156q0 73 44.5 118t118.5 45t119 -45t45 -118t-45 -118.5t-119 -45.5t-118.5 45.5t-44.5 118.5zM492 1350q-1 40 25.5 62t68.5 22h53q41 0 68 -22.5t26 -61.5l-26 -805q-1 -40 -27.5 -62t-67.5 -22t-67 22t-27 62z" />
<glyph unicode="&#x22;" d="M295 924v434q0 39 27 63.5t69 24.5t69 -24t27 -64v-434q0 -39 -27.5 -63.5t-68.5 -24.5t-68.5 24t-27.5 64zM741 924v434q0 39 27.5 63.5t69.5 24.5t69 -24t27 -64v-434q0 -39 -27 -63.5t-69 -24.5t-69.5 24t-27.5 64z" />
<glyph unicode="#" d="M72 516q0 64 63 64h160l100 311h-129q-63 0 -63 63q0 64 63 64h170l142 430q15 47 59 47q34 0 52 -17.5t18 -43.5q0 -16 -5 -29l-127 -387h254l142 430q15 47 59 47q34 0 52 -17.5t18 -43.5q0 -19 -4 -29l-127 -387h125q63 0 63 -64q0 -63 -63 -63h-166l-101 -311h136 q63 0 63 -64q0 -63 -63 -63h-177l-135 -416q-16 -49 -59 -49q-34 0 -52 17.5t-18 45.5q0 19 4 29l121 373h-254l-135 -416q-16 -49 -59 -49q-34 0 -52 17.5t-18 45.5q0 19 4 29l121 373h-119q-63 0 -63 63zM434 580h254l100 311h-253z" />
<glyph unicode="$" d="M217 346q0 37 26.5 62.5t63.5 25.5q6 0 12 -1.5t11 -3.5t11 -6.5t9 -7t8.5 -8t7.5 -8t7 -8t6 -6.5q49 -52 106 -81.5t144 -29.5q46 0 88 16.5t74 57t32 98.5q0 60 -49 105.5t-147 85.5l-135 53q-248 98 -248 330q0 123 81.5 202.5t221.5 94.5v156q0 67 67 67q68 0 68 -67 v-156q126 -17 202.5 -81t76.5 -108q0 -29 -25.5 -54t-54.5 -25q-33 0 -62 26q-90 86 -207 86q-85 0 -138.5 -35t-53.5 -104q0 -110 153 -172l134 -55q292 -123 292 -338q0 -148 -85 -236t-232 -106v-152q0 -67 -68 -67q-67 0 -67 67v154q-190 20 -303 162q-27 35 -27 67z " />
<glyph unicode="%" d="M170 1212q0 125 79 207t204 82t203.5 -81.5t78.5 -207.5q0 -125 -78.5 -206.5t-203.5 -81.5t-204 81.5t-79 206.5zM188 336l754 899q42 46 88 6q51 -41 10 -88l-753 -899q-42 -46 -88 -6q-51 42 -11 88zM276 1212q0 -84 48 -136t129 -52t128.5 52t47.5 136t-47.5 136.5 t-128.5 52.5t-129 -52.5t-48 -136.5zM494 264q0 126 78.5 207.5t203.5 81.5t204 -82t79 -207t-79 -207t-204 -82t-203.5 81.5t-78.5 207.5zM600 264q0 -84 47.5 -136t128.5 -52t128.5 52t47.5 136t-47.5 136.5t-128.5 52.5t-128.5 -52.5t-47.5 -136.5z" />
<glyph unicode="&#x26;" d="M158 477q0 97 49.5 173.5t136.5 119.5q-65 37 -102 98.5t-37 137.5q0 131 104.5 223t253.5 92q194 0 299 -127q49 -58 -8 -109q-50 -44 -115 15q-32 30 -79 48.5t-97 18.5q-81 0 -137.5 -47.5t-56.5 -113.5q0 -65 51 -109t135 -53q34 -3 55 -23.5t21 -54.5q0 -70 -76 -76 q-107 -9 -170 -66t-63 -147t69.5 -150.5t177.5 -60.5q95 0 164 47t84 117l-76 6q-33 1 -50 22t-15 54q3 33 23 53t53 17l331 -25q33 -3 50.5 -24t15.5 -54q-3 -33 -23 -51.5t-53 -15.5l-92 6q-20 -132 -136 -218.5t-276 -86.5q-176 0 -293.5 105t-117.5 259z" />
<glyph unicode="'" d="M516 924v434q0 39 28 63.5t70 24.5t70.5 -24t28.5 -64v-434q0 -39 -28.5 -63.5t-70.5 -24.5t-70 24t-28 64z" />
<glyph unicode="(" d="M438 664q0 284 108 549.5t259 422.5q30 29 52.5 28.5t47.5 -28.5q50 -56 -4 -110q-125 -131 -215 -370t-90 -492q0 -266 90 -515t215 -380q61 -61 8 -115q-28 -28 -52 -29.5t-52 25.5q-150 156 -258.5 436.5t-108.5 577.5z" />
<glyph unicode=")" d="M296.5 -289q3.5 30 31.5 58q125 131 215 380t90 515q0 253 -90 492t-215 370q-54 54 -4 110q25 28 47.5 28.5t52.5 -28.5q151 -157 259 -422.5t108 -549.5q0 -297 -108.5 -577.5t-258.5 -436.5q-28 -27 -52.5 -25.5t-52.5 29.5q-26 27 -22.5 57z" />
<glyph unicode="*" d="M170 1073q11 35 38 51t60 2l252 -114q15 -6 22 -24t1 -38q-6 -19 -21.5 -29t-32.5 -6l-272 56q-33 6 -46 36t-1 66zM284 568.5q-7 29.5 17 58.5l186 204q11 12 29.5 13.5t36.5 -10.5q15 -12 19.5 -30.5t-3.5 -31.5l-137 -242q-15 -30 -48 -34t-62 20q-31 23 -38 52.5z M532 1368q-4 34 20 56t62 22t62 -21t20 -57l-30 -274q-1 -17 -16.5 -29t-35.5 -12q-21 0 -35.5 11.5t-15.5 29.5zM656 803.5q5 18.5 20 30.5q37 25 65 -3l187 -204q23 -27 16.5 -57.5t-37.5 -53.5q-29 -24 -60.5 -21t-49.5 35l-138 242q-8 13 -3 31.5zM686 950q-6 20 0 38 t23 24l252 114q31 15 59 -1.5t39 -51.5q13 -35 0 -65t-47 -37l-273 -56q-15 -5 -31 5.5t-22 29.5z" />
<glyph unicode="+" d="M123 553q0 47 27.5 73.5t78.5 26.5h285v285q0 51 26.5 78.5t73.5 27.5q48 0 74.5 -27.5t26.5 -78.5v-285h284q51 0 79 -26.5t28 -73.5t-28 -73.5t-79 -26.5h-284v-285q0 -51 -27 -79t-74 -28t-73.5 28t-26.5 79v285h-285q-51 0 -78.5 26.5t-27.5 73.5z" />
<glyph unicode="," d="M430 164q0 76 47.5 124t124.5 48q55 0 94 -22t60.5 -64t31 -94t9.5 -119q0 -287 -273 -387q-26 -9 -49 -0.5t-35 33.5q-11 23 -4 48t29 38q39 26 59.5 40.5t47 37t38 43t11.5 40.5q0 21 -5 32t-10.5 14t-23 8t-29.5 10q-25 11 -42.5 21.5t-38 30t-31.5 49.5t-11 69z" />
<glyph unicode="-" d="M246 553q0 48 29 77t79 29h520q50 0 79.5 -29t29.5 -77t-29.5 -77.5t-79.5 -29.5h-520q-50 0 -79 29.5t-29 77.5z" />
<glyph unicode="." d="M442 164q0 76 47.5 124t124.5 48t124.5 -48t47.5 -124t-47.5 -124t-124.5 -48t-124.5 48t-47.5 124z" />
<glyph unicode="/" d="M115 -219l874 1716q31 63 94 29q60 -29 31 -92l-874 -1717q-30 -63 -95 -28q-59 29 -30 92z" />
<glyph unicode="0" d="M156 592v113q0 277 124 446.5t334 169.5t334.5 -170t124.5 -446v-113q0 -277 -124.5 -447t-334.5 -170t-334 170t-124 447zM344 592q0 -198 73.5 -320t196.5 -122q124 0 197.5 122t73.5 320v113q0 198 -73.5 320t-197.5 122q-123 0 -196.5 -122t-73.5 -320v-113z" />
<glyph unicode="1" d="M301 1036q0 40 21.5 63t60.5 23q55 0 92 10.5t53 27.5t25 37.5t13 40.5t11.5 37t26 27.5t51.5 10.5q41 0 65.5 -22t24.5 -62v-1157q0 -40 -24.5 -62t-65.5 -22t-66.5 22t-25.5 62v878h-180q-39 0 -60.5 23t-21.5 63z" />
<glyph unicode="2" d="M184 84q0 55 54 109l452 444q164 164 164 276q0 101 -69.5 167.5t-168.5 66.5q-90 0 -151.5 -52.5t-85.5 -129.5q-16 -54 -78 -54q-49 0 -74.5 20t-25.5 56q0 55 32 114t85.5 108t132.5 80.5t165 31.5q115 0 212 -51.5t155.5 -145.5t58.5 -211q0 -108 -58 -203.5 t-169 -201.5l-354 -334h543q41 0 62 -23t21 -63q0 -41 -21.5 -64.5t-61.5 -23.5h-725q-41 0 -68 22t-27 62z" />
<glyph unicode="3" d="M170 -156q0 41 22 64.5t62 23.5q262 0 419.5 83.5t157.5 234.5q0 113 -80 177.5t-227 82.5q-88 12 -88 86q0 34 19.5 58t68.5 40q37 12 70 26.5t68.5 39.5t61 55t42 73.5t16.5 94.5q0 77 -48.5 120.5t-131.5 43.5q-135 0 -233 -84q-30 -27 -70 -27q-37 0 -63.5 28.5 t-26.5 63.5q0 46 62 91.5t154 73.5t177 28q167 0 268 -92t101 -246q0 -121 -68 -216.5t-158 -145.5q113 -32 194 -129.5t81 -241.5q0 -159 -96.5 -271t-267 -166.5t-402.5 -54.5q-41 0 -62.5 23t-21.5 63z" />
<glyph unicode="4" d="M127 432q0 44 33 115q41 84 63.5 134t55 139.5t49.5 167.5t30 189.5t13 235.5q0 40 24.5 62t65.5 22t66.5 -22t25.5 -62q0 -487 -211 -893h434v438q0 40 24.5 62t65.5 22t66.5 -22t25.5 -62v-438h64q40 0 62 -23.5t22 -64.5q0 -40 -21.5 -63t-62.5 -23h-64v-274 q0 -40 -25.5 -62t-66.5 -22t-65.5 22t-24.5 62v274h-565q-41 0 -62.5 23t-21.5 63z" />
<glyph unicode="5" d="M127 -168q-8 41 10 71t56 36q669 111 669 442q0 87 -54 134.5t-140 47.5q-35 0 -73 -4t-73.5 -11.5t-61 -13t-54.5 -13.5t-33 -9q-72 -16 -86 -16q-42 0 -68.5 22t-23.5 62l41 637q3 41 27.5 62t64.5 21h665q40 0 62 -23.5t22 -64.5q0 -40 -21.5 -63t-62.5 -23h-575 l-37 -421q44 10 132.5 21t154.5 11q172 0 277.5 -94t105.5 -262q0 -92 -33.5 -173t-86.5 -139.5t-128 -108.5t-148.5 -82.5t-158 -58.5t-146 -39.5t-123.5 -23.5q-39 -6 -65.5 15.5t-34.5 60.5z" />
<glyph unicode="6" d="M158 563q0 189 38 340t112.5 263t176.5 191t238 134q85 36 119 -39q33 -78 -49 -117q-400 -191 -433 -585q98 98 254 98q195 0 324 -125.5t129 -314.5q0 -188 -128.5 -310.5t-324.5 -122.5q-236 0 -346 150.5t-110 437.5zM350 408q0 -112 75 -185t189 -73t189.5 73 t75.5 185q0 114 -75.5 190t-189.5 76q-121 0 -192.5 -72t-71.5 -194z" />
<glyph unicode="7" d="M135 1212q0 41 22 64.5t62 23.5h758q41 0 67.5 -21.5t26.5 -61.5q0 -31 -29 -99l-557 -1298q-25 -58 -84 -58q-47 0 -73.5 20.5t-26.5 57.5q0 27 10 47l547 1239h-639q-41 0 -62.5 23t-21.5 63z" />
<glyph unicode="8" d="M156 408q0 115 52.5 204.5t145.5 141.5q-166 111 -166 323q0 185 123 304.5t303 119.5t303 -119.5t123 -304.5q0 -210 -166 -323q93 -52 146 -141.5t53 -204.5q0 -188 -131.5 -310.5t-327.5 -122.5t-327 122.5t-131 310.5zM344 408q0 -112 77 -185t193 -73t193.5 73 t77.5 185q0 114 -77.5 190t-193.5 76t-193 -76t-77 -190zM377 1077q0 -109 68.5 -179.5t168.5 -70.5t169 70.5t69 179.5t-69 179.5t-169 70.5t-168.5 -70.5t-68.5 -179.5z" />
<glyph unicode="9" d="M158 889q0 188 128 310t324 122q236 0 346.5 -150.5t110.5 -437.5q0 -155 -21 -283.5t-56 -222.5t-90 -168t-114.5 -123t-138 -86t-152.5 -57.5t-165 -36.5q-44 -7 -76.5 17.5t-32.5 64.5q0 91 74 101q271 33 408 175t161 433q-98 -98 -254 -98q-195 0 -323.5 125.5 t-128.5 314.5zM346 889q0 -114 75 -190t189 -76q121 0 192.5 72t71.5 194q0 112 -75 185t-189 73t-189 -73t-75 -185z" />
<glyph unicode=":" d="M451 156q0 73 44.5 118t118.5 45t119 -45t45 -118t-45 -118.5t-119 -45.5t-118.5 45.5t-44.5 118.5zM451 762q0 73 44.5 118.5t118.5 45.5t119 -45.5t45 -118.5t-45 -118.5t-119 -45.5t-118.5 45.5t-44.5 118.5z" />
<glyph unicode=";" d="M440 -269q7 25 29 38q39 26 59.5 40.5t47 37t38 43t11.5 40.5q0 21 -5 32t-10.5 14t-23 8t-29.5 10q-52 22 -83.5 59.5t-31.5 110.5t45 118.5t119 45.5q103 0 145 -77t42 -214q0 -290 -265 -387q-26 -9 -49 -0.5t-35 33.5q-11 23 -4 48zM442 762q0 73 45 118.5t119 45.5 t119 -45.5t45 -118.5t-45 -118.5t-119 -45.5t-119 45.5t-45 118.5z" />
<glyph unicode="=" d="M123 319q0 48 27.5 74.5t78.5 26.5h770q51 0 79 -27t28 -74t-28 -73.5t-79 -26.5h-770q-51 0 -78.5 26.5t-27.5 73.5zM123 784q0 48 27.5 74.5t78.5 26.5h770q51 0 79 -27t28 -74t-28 -73.5t-79 -26.5h-770q-51 0 -78.5 26.5t-27.5 73.5z" />
<glyph unicode="?" d="M229 1157q0 49 29.5 102t78.5 97.5t122.5 73t152.5 28.5q165 0 279.5 -105.5t114.5 -269.5q0 -58 -13 -104.5t-31 -78.5t-55.5 -65.5t-67 -53.5t-85.5 -54q-70 -43 -70 -182q0 -40 -26.5 -62t-67.5 -22t-67.5 22t-26.5 62q0 128 29 198.5t108 116.5q45 26 70 43t55.5 45 t44.5 61.5t14 73.5q0 89 -59 145t-146 56q-157 0 -204 -149q-16 -54 -78 -54q-49 0 -75 20t-26 56zM426 156q0 73 45 118t119 45t119 -45t45 -118t-45 -118.5t-119 -45.5t-119 45.5t-45 118.5z" />
<glyph unicode="@" d="M100 717q0 368 124 554.5t397 186.5q255 0 381 -177.5t126 -520.5q0 -169 -57.5 -270t-173.5 -101q-104 0 -145 78q-60 -78 -179 -78q-100 0 -157.5 82t-57.5 213q0 167 71.5 259.5t201.5 92.5q65 0 137 -10q37 -5 52.5 -19.5t15.5 -48.5v-274q0 -92 13.5 -131t53.5 -39 q47 0 69.5 58t22.5 188q0 573 -374 573q-206 0 -297 -154t-91 -462q0 -310 88 -463.5t293 -153.5q157 0 285 109q51 44 96 -4q48 -51 -8 -101q-144 -129 -373 -129q-272 0 -393 186t-121 556zM492 684q0 -77 22.5 -123.5t65.5 -46.5q23 0 40 5.5t36.5 22.5t31.5 57.5 t14 102.5v199q-30 10 -71 10q-66 0 -102.5 -60t-36.5 -167z" />
<glyph unicode="A" d="M45 70q0 18 4 28l389 1231q18 54 51.5 79.5t92.5 25.5h65q59 0 92.5 -25.5t51.5 -79.5l389 -1231q4 -20 4 -28q0 -35 -29 -59.5t-72 -24.5q-60 0 -77 59l-109 352h-565l-109 -352q-17 -59 -78 -59q-43 0 -71.5 24.5t-28.5 59.5zM385 573h459l-211 697h-37z" />
<glyph unicode="B" d="M164 84v1266q0 40 25.5 62t66.5 22h311q212 0 341.5 -99t129.5 -288q0 -198 -168 -287q95 -36 157.5 -125t62.5 -215q0 -209 -138 -314.5t-366 -105.5h-330q-41 0 -66.5 22t-25.5 62zM348 176h248q135 0 219 60.5t84 183.5q0 122 -84 182t-219 60h-248v-486zM348 838h238 q121 0 191.5 54t70.5 155q0 104 -72.5 157t-197.5 53h-230v-419z" />
<glyph unicode="C" d="M109 653v127q0 317 134.5 497.5t379.5 180.5q265 0 407 -221q14 -25 14 -57q0 -38 -28.5 -62t-71.5 -24q-36 0 -63 36q-59 80 -117 113t-141 33q-154 0 -238 -133.5t-84 -370.5v-110q0 -237 84.5 -370.5t241.5 -133.5q82 0 139.5 36t118.5 119q29 39 67 39q43 0 72 -25.5 t29 -62.5q0 -31 -15 -57q-69 -108 -173.5 -170t-237.5 -62q-248 0 -383 180.5t-135 497.5z" />
<glyph unicode="D" d="M164 84v1266q0 40 26.5 62t67.5 22h205q310 0 483.5 -167.5t173.5 -486.5v-127q0 -319 -173.5 -486t-483.5 -167h-205q-41 0 -67.5 22t-26.5 62zM350 176h135q210 0 327.5 122t117.5 364v110q0 241 -117.5 363t-327.5 122h-135v-1081z" />
<glyph unicode="E" d="M229 84v1266q0 40 27 62t68 22h675q40 0 62 -23.5t22 -64.5t-22 -65t-62 -24h-583v-430h436q40 0 62 -23.5t22 -64.5t-22 -64.5t-62 -23.5h-436v-475h602q40 0 62 -23.5t22 -64.5t-22 -64.5t-62 -23.5h-694q-41 0 -68 22t-27 62z" />
<glyph unicode="F" d="M229 72v1278q0 40 27 62t68 22h700q40 0 62 -23.5t22 -64.5t-22 -65t-62 -24h-608v-430h461q40 0 62 -23.5t22 -64.5t-22 -64.5t-62 -23.5h-461v-579q0 -40 -25.5 -62t-66.5 -22t-68 22t-27 62z" />
<glyph unicode="G" d="M109 653v127q0 317 138 497.5t390 180.5q265 0 407 -221q15 -26 15 -57q0 -38 -29 -62t-72 -24q-36 0 -63 36q-59 80 -117 113t-141 33q-161 0 -248.5 -133.5t-87.5 -370.5v-110q0 -236 87.5 -370t244.5 -134q147 0 230.5 95.5t88.5 229.5h-198q-40 0 -62 23.5t-22 64.5 t22 64.5t62 23.5h280q41 0 67.5 -22t26.5 -62v-329q0 -28 4.5 -93.5t4.5 -86.5q0 -38 -21.5 -58t-60.5 -20q-78 0 -84 78q-4 47 -4 65q-133 -156 -342 -156q-245 0 -380.5 181t-135.5 497z" />
<glyph unicode="H" d="M164 72v1290q0 40 25.5 62t66.5 22t66.5 -22t25.5 -62v-524h533v524q0 40 25.5 62t66.5 22t66.5 -22t25.5 -62v-1290q0 -40 -25.5 -62t-66.5 -22t-66.5 22t-25.5 62v590h-533v-590q0 -40 -25.5 -62t-66.5 -22t-66.5 22t-25.5 62z" />
<glyph unicode="I" d="M520 72v1290q0 40 26.5 62t67.5 22t68 -22t27 -62v-1290q0 -40 -27 -62t-68 -22t-67.5 22t-26.5 62z" />
<glyph unicode="J" d="M104 381q-1 8 -1 15q0 34 23 57q27 28 75 28q82 0 90 -75q18 -117 86.5 -183.5t187.5 -66.5q141 0 210 92t69 250v864q0 40 27 62t69 22q41 0 66.5 -22t25.5 -62v-883q0 -230 -123 -367t-344 -137q-196 0 -316 109t-145 297z" />
<glyph unicode="K" d="M164 72v1290q0 40 25.5 62t66.5 22t66.5 -22t25.5 -62v-555q45 18 111 100l415 512q21 27 60 27q43 0 74.5 -27.5t31.5 -68.5q0 -33 -24 -60l-459 -534q96 -30 187.5 -130t236.5 -313q57 -84 143 -166q52 -52 52 -84q0 -34 -33.5 -54.5t-75.5 -20.5q-68 0 -125 63 q-73 80 -166 220.5t-125 179.5q-73 89 -107 118q-81 68 -196 68v-565q0 -40 -25.5 -62t-66.5 -22t-66.5 22t-25.5 62z" />
<glyph unicode="L" d="M244 84v1278q0 40 26.5 62t67.5 22t66.5 -22t25.5 -62v-1186h594q40 0 62 -23.5t22 -64.5t-22 -64.5t-62 -23.5h-686q-41 0 -67.5 22t-26.5 62z" />
<glyph unicode="M" d="M80 80l90 1294q8 72 96 72q26 0 47.5 -14t32.5 -37l268 -549l269 549q11 22 32.5 36.5t47.5 14.5q88 0 96 -72l90 -1294q1 -6 1 -11q0 -33 -20 -53q-23 -24 -65 -28q-9 -1 -17 -1q-30 0 -52 15q-28 19 -33 59l-66 977l-227 -479q-16 -33 -56 -33q-38 0 -55 33l-227 479 l-66 -977q-4 -40 -32 -59q-23 -15 -53 -15q-8 0 -17 1q-42 4 -65 28q-20 20 -20 53q0 5 1 11z" />
<glyph unicode="N" d="M164 72v1290q0 40 25.5 62t66.5 22q29 0 50 -12t40 -45l537 -986v959q0 40 24.5 62t65.5 22t66.5 -22t25.5 -62v-1290q0 -40 -25.5 -62t-66.5 -22q-58 0 -90 55l-537 987v-958q0 -40 -24.5 -62t-65.5 -22t-66.5 22t-25.5 62z" />
<glyph unicode="O" d="M109 653v127q0 317 132 497.5t373 180.5t373.5 -181t132.5 -497v-127q0 -316 -132.5 -497t-373.5 -181t-373 180.5t-132 497.5zM301 662q0 -237 81.5 -370.5t231.5 -133.5t232 133.5t82 370.5v110q0 237 -82 370.5t-232 133.5t-231.5 -133.5t-81.5 -370.5v-110z" />
<glyph unicode="P" d="M164 72v1278q0 40 25.5 62t66.5 22h356q147 0 259 -49t178.5 -150.5t66.5 -243.5q0 -211 -139.5 -325.5t-364.5 -114.5h-264v-479q0 -40 -25.5 -62t-66.5 -22t-66.5 22t-25.5 62zM348 727h275q132 0 217.5 69t85.5 195t-85.5 196t-217.5 70h-275v-530z" />
<glyph unicode="Q" d="M109 653v127q0 317 132 497.5t373 180.5t373.5 -181t132.5 -497v-127q0 -289 -112.5 -467t-319.5 -204q109 -109 289 -109q35 0 85.5 8t74.5 8q80 0 80 -86q0 -79 -80 -94q-77 -14 -133 -14q-99 0 -179 24.5t-137 65.5t-103 84t-102.5 91.5t-109.5 76.5 q-111 59 -187.5 215t-76.5 401zM301 662q0 -237 81.5 -370.5t231.5 -133.5t232 133.5t82 370.5v110q0 237 -82 370.5t-232 133.5t-231.5 -133.5t-81.5 -370.5v-110z" />
<glyph unicode="R" d="M164 72v1278q0 40 25.5 62t66.5 22h322q144 0 254.5 -46t176.5 -144t66 -236q0 -141 -75 -247.5t-216 -146.5q107 -55 181 -202q97 -196 147 -269q37 -54 37 -77q0 -34 -27.5 -56t-66.5 -22q-42 0 -73 20t-56 70q-23 45 -166 325q-54 105 -119.5 143t-181.5 38h-111v-512 q0 -40 -25.5 -62t-66.5 -22t-66.5 22t-25.5 62zM348 760h240q128 0 212.5 64.5t84.5 183.5t-84.5 184t-212.5 65h-240v-497z" />
<glyph unicode="S" d="M142 257q0 41 28 70t72 29q8 0 16 -2t15.5 -6.5t13 -8t12.5 -10.5t10 -10.5t9.5 -11t7.5 -8.5q61 -69 129.5 -106t177.5 -37q48 0 92 13.5t83 40.5q38 26 60 74q21 45 21 104v5q-3 139 -250 238l-164 65q-149 59 -227 152.5t-78 241.5q0 167 121 267.5t321 100.5 q252 0 394 -168q30 -38 30 -71q0 -32 -27.5 -56t-64.5 -24q-42 0 -74 32q-55 53 -112.5 81t-143.5 28q-112 0 -182 -47t-70 -141q0 -141 201 -224l162 -67q57 -24 100 -46t94.5 -58.5t84 -76.5t55 -98t22.5 -125q0 -202 -124 -312t-334 -110q-91 0 -165.5 17t-128 49.5 t-88.5 63.5t-69 73q-30 36 -30 79z" />
<glyph unicode="T" d="M61 1346q0 41 22 64.5t62 23.5h938q40 0 62 -23.5t22 -64.5t-22 -65t-62 -24h-374v-1185q0 -40 -27 -62t-68 -22t-67.5 22t-26.5 62v1185h-375q-40 0 -62 24t-22 65z" />
<glyph unicode="U" d="M147 479v883q0 40 26 62t67 22t67.5 -22t26.5 -62v-864q0 -158 69 -250t211 -92q141 0 211 92t70 250v864q0 40 26.5 62t67.5 22t66.5 -22t25.5 -62v-883q0 -230 -123 -367t-344 -137q-222 0 -344.5 137t-122.5 367z" />
<glyph unicode="V" d="M94 1333q-3 13 -3 26q0 23 12 41q19 28 57 40q18 5 35 5q20 0 38 -7q33 -13 43 -52l314 -1183q5 -15 24 -15q20 0 25 15l311 1183q10 38 44 52q19 7 39 7q17 0 34 -5q39 -11 59 -40q12 -18 12 -39q0 -13 -5 -28l-336 -1229q-32 -104 -146 -104h-73q-114 0 -146 104z" />
<glyph unicode="W" d="M39 1354q-1 8 -1 16q0 30 20 50q24 26 69 26q43 0 66.5 -17t29.5 -57l160 -1026l176 469q17 33 55 33q40 0 56 -33l176 -469l160 1026q11 74 94 74q44 0 70 -26q21 -21 21 -51q0 -7 -1 -15l-211 -1295q-10 -71 -96 -71q-26 0 -47.5 14.5t-32.5 36.5l-189 467l-188 -467 q-11 -23 -32.5 -37t-47.5 -14q-86 0 -96 71z" />
<glyph unicode="X" d="M117 119l395 624l-358 566q-14 22 -14 44q0 23 15 47q29 46 87 46q41 0 65 -41l307 -500l308 500q24 41 65 41q56 0 87 -44q16 -23 16 -47q0 -23 -15 -46l-358 -566l395 -624q15 -23 15 -46q-1 -23 -15 -43q-28 -42 -88 -42q-45 0 -66 35l-344 559l-344 -559 q-21 -35 -65 -35q-52 0 -86 41q-18 21 -18 44q0 22 16 46z" />
<glyph unicode="Y" d="M78 1362q0 32 33 58t73 26q46 0 70 -43l360 -627l361 627q24 43 69 43q40 0 72.5 -26t32.5 -58q0 -30 -12 -51l-428 -740v-499q0 -40 -27 -62t-68 -22t-67.5 22t-26.5 62v499l-428 740q-14 25 -14 51z" />
<glyph unicode="Z" d="M117 84q0 49 45 113l698 1060h-608q-40 0 -62 24t-22 65t22 64.5t62 23.5h754q41 0 67.5 -22t26.5 -62q0 -34 -45 -113l-695 -1061h687q40 0 61.5 -23.5t21.5 -64.5t-21.5 -64.5t-61.5 -23.5h-836q-41 0 -67.5 22t-26.5 62z" />
<glyph unicode="[" d="M508 -274v1835q0 40 26.5 62t67.5 22h232q40 0 57.5 -17t17.5 -55t-17.5 -55t-57.5 -17h-187v-1716h187q40 0 57.5 -17t17.5 -55t-17.5 -54.5t-57.5 -16.5h-232q-41 0 -67.5 22t-26.5 62z" />
<glyph unicode="\" d="M115 1434q-29 63 30 92q64 34 95 -29l874 -1716q29 -63 -31 -92q-64 -34 -94 28z" />
<glyph unicode="]" d="M319 -287q0 38 18 55t58 17h187v1716h-187q-40 0 -58 17t-18 55t18 55t58 17h232q41 0 67.5 -22t26.5 -62v-1835q0 -40 -26.5 -62t-67.5 -22h-232q-40 0 -58 16.5t-18 54.5z" />
<glyph unicode="_" d="M55 -90q0 45 27 69.5t78 24.5h909q51 0 78 -24.5t27 -69.5t-27 -69.5t-78 -24.5h-909q-51 0 -78 24.5t-27 69.5z" />
<glyph unicode="`" d="M383 1362q-6 36 16 72q23 40 54.5 52.5t66.5 -9.5l305 -215q18 -13 21.5 -35.5t-8.5 -44.5q-11 -21 -33 -31t-43 0l-338 158q-35 17 -41 53z" />
<glyph unicode="a" d="M143 317q0 304 512 304q97 0 215 -11v47q0 40 -11 74t-37 65.5t-77 49.5t-124 18q-41 0 -90.5 -9t-80.5 -17.5t-92 -26.5q-12 -3 -24 -3q-20 0 -39 10q-30 16 -39 48q-4 15 -4 28q0 20 8 36q14 28 47 39q148 63 326 63q206 0 311 -98.5t105 -259.5v-420q0 -30 4 -95.5 t4 -86.5q0 -38 -24.5 -60t-61.5 -22q-73 0 -92 84q-51 -41 -134 -66.5t-178 -25.5q-192 0 -308 95t-116 240zM319 311q0 -65 68 -114.5t180 -49.5q180 0 303 111v180q-68 23 -213 23q-338 0 -338 -150z" />
<glyph unicode="b" d="M166 72q0 21 4 86.5t4 95.5v1159q0 39 24.5 60.5t65.5 21.5t65.5 -21.5t24.5 -60.5v-475q112 94 279 94q226 0 359.5 -143.5t133.5 -382.5t-133.5 -382.5t-359.5 -143.5q-174 0 -285 108q-4 -47 -31 -72.5t-63 -25.5q-38 0 -63 22t-25 60zM354 311q42 -74 114 -115.5 t165 -41.5q143 0 224 96.5t81 255.5t-81 255.5t-224 96.5q-92 0 -164.5 -42.5t-114.5 -117.5v-387z" />
<glyph unicode="c" d="M160 506q0 237 143 381.5t371 144.5q256 0 401 -178q23 -27 23 -53q0 -37 -47 -72q-26 -19 -55 -19q-6 0 -12 1q-36 5 -64 37q-93 110 -246 110q-145 0 -235.5 -97.5t-90.5 -254.5t90.5 -254.5t235.5 -97.5q164 0 256 122q33 42 72 42q23 0 49 -15q37 -22 49 -57 q5 -13 4 -25q0 -22 -14 -45q-69 -94 -176 -145t-240 -51q-228 0 -371 144.5t-143 381.5z" />
<glyph unicode="d" d="M102 506q0 239 134 382.5t360 143.5q166 0 278 -94v475q0 39 25 60.5t66 21.5t65.5 -21.5t24.5 -60.5v-1159q0 -30 4 -95.5t4 -86.5q0 -38 -25 -60t-63 -22q-36 0 -63 25.5t-31 72.5q-111 -108 -285 -108q-226 0 -360 143.5t-134 382.5zM291 506q0 -159 81 -255.5 t224 -96.5q93 0 164.5 41.5t113.5 115.5v387q-42 75 -114 117.5t-164 42.5q-143 0 -224 -96.5t-81 -255.5z" />
<glyph unicode="e" d="M141 506q0 111 38.5 209.5t103.5 167.5t153.5 109t186.5 40q88 0 163 -27.5t128.5 -75t91.5 -112t56.5 -139t18.5 -154.5q0 -57 -59 -57h-692q10 -141 100 -227t225 -86q153 0 275 112q33 29 67 29l3 -1q35 -2 59 -28q32 -37 32 -69q0 -27 -22 -50q-160 -167 -414 -167 q-228 0 -371 144.5t-143 381.5zM340 610h551q-19 119 -89 183.5t-179 64.5q-97 0 -176.5 -68t-106.5 -180z" />
<glyph unicode="f" d="M252 918q0 40 21.5 63t60.5 23h110v63q0 233 96.5 325.5t340.5 92.5h123q39 0 61 -24.5t22 -65.5t-28.5 -65.5t-79.5 -24.5q-13 0 -65 4t-68 4q-71 0 -113.5 -12.5t-65.5 -46t-30.5 -77.5t-7.5 -120v-53h295q39 0 60.5 -23t21.5 -63t-21.5 -63.5t-60.5 -23.5h-295v-761 q0 -39 -25.5 -60.5t-66.5 -21.5t-67 21.5t-26 60.5v761h-110q-39 0 -60.5 23.5t-21.5 63.5z" />
<glyph unicode="g" d="M104 526q0 233 133.5 369.5t360.5 136.5q174 0 285 -108q4 47 31 72.5t63 25.5q38 0 63 -22t25 -60q0 -21 -4 -86.5t-4 -95.5v-772q0 -129 -62.5 -227.5t-166.5 -148.5t-232 -50q-127 0 -212.5 21t-162.5 71q-34 22 -43 60q-3 11 -3 22q0 25 15 49q22 33 58 41q10 3 20 3 q24 0 47 -15q126 -80 281 -80q127 0 204 73t77 195v121q-54 -45 -127 -73t-152 -28q-227 0 -360.5 136.5t-133.5 369.5zM293 526q0 -153 80.5 -242t224.5 -89q91 0 163 42.5t116 116.5v346q-42 75 -114.5 116.5t-164.5 41.5q-144 0 -224.5 -89t-80.5 -243z" />
<glyph unicode="h" d="M172 72v1341q0 39 24.5 60.5t65.5 21.5t65.5 -21.5t24.5 -60.5v-510q65 57 158 93t190 36q198 0 285.5 -122.5t87.5 -348.5v-489q0 -39 -24.5 -60.5t-65.5 -21.5t-65.5 21.5t-24.5 60.5v467q0 60 -5 105.5t-19 87.5t-37 69t-60.5 43t-87.5 16q-95 0 -193 -50t-139 -122 v-616q0 -39 -24.5 -60.5t-65.5 -21.5t-65.5 21.5t-24.5 60.5z" />
<glyph unicode="i" d="M463 1350q0 67 41.5 109t109.5 42t110 -42t42 -109t-42 -109.5t-110 -42.5t-109.5 42.5t-41.5 109.5zM522 70v870q0 39 25.5 60.5t66.5 21.5t67 -21.5t26 -60.5v-870q0 -39 -26 -60.5t-67 -21.5t-66.5 21.5t-25.5 60.5z" />
<glyph unicode="j" d="M72 -293q8 27 27 41t40.5 13.5t44.5 -5.5q84 -24 185 -24q258 0 258 293v915q0 39 25.5 60.5t66.5 21.5t66.5 -21.5t25.5 -60.5v-936q0 -221 -107 -332.5t-335 -111.5q-141 0 -238 34q-37 13 -54 42q-10 17 -10 38q0 16 5 33zM567 1350q0 67 42 109t110 42t109.5 -42 t41.5 -109t-41.5 -109.5t-109.5 -42.5t-110 42.5t-42 109.5z" />
<glyph unicode="k" d="M219 70v1347q0 38 24.5 58t65.5 20t65.5 -20t24.5 -58v-839h33l430 413q31 31 66 31q30 0 59 -29t29 -61q0 -35 -27 -62l-334 -309l318 -346l108 -70q47 -36 47 -67q0 -39 -31 -64.5t-63 -25.5q-62 0 -107 30.5t-120 114.5l-277 313l-131 -122v-254q0 -39 -24.5 -60.5 t-65.5 -21.5t-65.5 21.5t-24.5 60.5z" />
<glyph unicode="l" d="M379 1399q0 40 21.5 63t60.5 23h164q41 0 66.5 -21.5t25.5 -60.5v-1333q0 -39 -25.5 -60.5t-66.5 -21.5t-67 21.5t-26 60.5v1243h-71q-39 0 -60.5 23t-21.5 63z" />
<glyph unicode="m" d="M74 946q0 36 19.5 56t53.5 20q37 0 65 -32.5t28 -96.5q46 69 97.5 104t129.5 35q172 0 217 -141q97 141 236 141q74 0 122.5 -23t74.5 -70.5t36 -106t10 -144.5v-620q0 -78 -82 -78t-82 78v598q0 110 -24 161.5t-92 51.5q-44 0 -91 -46t-83 -122v-643q0 -78 -80 -78 t-80 78v598q0 109 -25.5 161t-93.5 52q-47 0 -97 -52.5t-87 -138.5v-620q0 -78 -82 -78t-82 78v696q0 30 -4 95.5t-4 86.5z" />
<glyph unicode="n" d="M164 940q0 38 25 60t63 22t66 -31t28 -88q68 57 162.5 93t191.5 36q198 0 285.5 -122.5t87.5 -348.5v-489q0 -39 -24.5 -60.5t-65.5 -21.5t-65.5 21.5t-24.5 60.5v467q0 60 -5 105.5t-19 87.5t-37 69t-60.5 43t-87.5 16q-95 0 -193 -50t-139 -122v-616q0 -39 -24.5 -60.5 t-65.5 -21.5t-65.5 21.5t-24.5 60.5v686q0 30 -4 95.5t-4 86.5z" />
<glyph unicode="o" d="M100 506q0 237 143 381.5t371 144.5t371 -144.5t143 -381.5t-143 -381.5t-371 -144.5t-371 144.5t-143 381.5zM289 506q0 -157 90 -254.5t235 -97.5t235.5 97.5t90.5 254.5t-90.5 254.5t-235.5 97.5t-235 -97.5t-90 -254.5z" />
<glyph unicode="p" d="M166 940q0 38 25 60t63 22q36 0 63 -25.5t31 -72.5q111 108 285 108q226 0 359.5 -143.5t133.5 -382.5t-133.5 -382.5t-359.5 -143.5q-164 0 -279 100v-428q0 -39 -24.5 -60.5t-65.5 -21.5t-65.5 21.5t-24.5 60.5v1106q0 30 -4 95.5t-4 86.5zM354 313q42 -75 114.5 -117 t164.5 -42q143 0 224 96.5t81 255.5t-81 255.5t-224 96.5q-92 0 -164.5 -41.5t-114.5 -116.5v-387z" />
<glyph unicode="q" d="M102 506q0 239 134 382.5t360 143.5q174 0 285 -108q4 47 31 72.5t63 25.5q38 0 63 -22t25 -60q0 -21 -4 -86.5t-4 -95.5v-1106q0 -39 -24.5 -60.5t-65.5 -21.5t-66 21.5t-25 60.5v428q-115 -100 -278 -100q-226 0 -360 143.5t-134 382.5zM291 506q0 -159 81 -255.5 t224 -96.5q92 0 164 42t114 117v387q-42 75 -114 116.5t-164 41.5q-143 0 -224 -96.5t-81 -255.5z" />
<glyph unicode="r" d="M295 940q0 38 26 60t64 22t67 -31t29 -88v-41q35 40 65.5 65.5t75.5 51t104.5 37.5t135.5 12q78 0 127 -6q38 -5 62 -31t24 -67q0 -49 -30.5 -75t-83.5 -26q-32 0 -83.5 16.5t-72.5 16.5q-96 0 -172 -47t-115 -121q-31 -57 -31 -211v-407q0 -39 -25.5 -60.5t-66.5 -21.5 t-66.5 21.5t-25.5 60.5v688q0 30 -4 95.5t-4 86.5z" />
<glyph unicode="s" d="M213 182q0 33 28 59.5t66 26.5q22 0 55 -19t64.5 -42.5t85 -42.5t111.5 -19q223 0 223 142q0 51 -50.5 82t-150.5 53l-110 24q-302 67 -302 312q0 130 111 202t281 72q58 0 118.5 -10.5t116 -31t90.5 -56t35 -80.5q0 -30 -22 -54t-62 -24q-18 0 -46.5 14t-57 31t-77 31 t-102.5 14q-56 0 -99 -9t-75 -36.5t-32 -70.5q0 -58 44.5 -90.5t127.5 -51.5l108 -24q78 -18 132.5 -39t102.5 -54.5t72.5 -84.5t24.5 -119q0 -145 -107.5 -226t-293.5 -81q-96 0 -191.5 28.5t-157 76t-61.5 97.5z" />
<glyph unicode="t" d="M168 918q0 40 21.5 63t60.5 23h121v227q0 39 25.5 60.5t66.5 21.5t66.5 -21.5t25.5 -60.5v-227h295q39 0 60.5 -23t21.5 -63t-21.5 -63.5t-60.5 -23.5h-295v-409q0 -77 7 -122t28.5 -77.5t59.5 -44.5t102 -12q48 0 110 17.5t84 17.5q30 0 55 -20t25 -70 q0 -33 -15.5 -52.5t-49.5 -31.5q-32 -12 -96 -22.5t-103 -10.5q-215 0 -303 92t-88 326v419h-121q-39 0 -60.5 23.5t-21.5 63.5z" />
<glyph unicode="u" d="M156 451v489q0 39 24.5 60.5t65.5 21.5t65.5 -21.5t24.5 -60.5v-467q0 -60 5 -105.5t19 -87.5t37 -69t60.5 -43t87.5 -16q95 0 193 50t139 122v616q0 39 24.5 60.5t65.5 21.5t65.5 -21.5t24.5 -60.5v-686q0 -30 4 -95.5t4 -86.5q0 -38 -25 -60t-63 -22t-66 31t-28 88 q-68 -57 -163 -93t-192 -36q-101 0 -174 33t-116 96.5t-62.5 147.5t-19.5 194z" />
<glyph unicode="v" d="M84 924q0 34 33 62t76 28q52 0 75 -51l346 -744l347 744q25 51 75 51q42 0 75.5 -28t33.5 -62q0 -16 -6 -31l-398 -821q-19 -38 -42 -57t-60 -19h-49q-38 0 -61 19t-42 57l-397 821q-6 15 -6 31z" />
<glyph unicode="w" d="M76 932q-2 9 -2 17q0 27 19 47q24 26 67 26q41 0 63 -16.5t29 -55.5l123 -649l184 422q14 39 55 39q42 0 56 -39l184 -422l123 649q14 72 90 72q43 0 68 -26q20 -20 20 -48q0 -8 -2 -16l-172 -875q-7 -38 -29.5 -53.5t-62.5 -15.5q-24 0 -45.5 14t-30.5 35l-199 422 l-198 -422q-24 -49 -76 -49q-40 0 -62.5 15.5t-29.5 53.5z" />
<glyph unicode="x" d="M104 80q0 29 23 55l373 410l-299 327q-25 25 -25 58q0 34 31 64t65 30q27 0 60 -33l282 -319l283 319q29 33 57 33q34 0 66.5 -30.5t32.5 -63.5q0 -29 -25 -58l-299 -327l373 -410q22 -28 22 -55q0 -32 -31 -62t-65 -30q-35 0 -57 28l-357 400l-356 -400q-25 -28 -59 -28 t-64.5 30t-30.5 62z" />
<glyph unicode="y" d="M84 924q0 34 33 62t76 28q47 0 75 -51l346 -658l347 658q25 51 75 51q42 0 75.5 -28t33.5 -62q0 -21 -6 -31l-695 -1274q-25 -51 -75 -51q-47 0 -78 29t-31 71q0 16 6 31l242 424l-418 770q-6 15 -6 31z" />
<glyph unicode="z" d="M147 82q0 62 52 117l608 641h-553q-40 0 -61 22.5t-21 63.5t21 63.5t61 22.5h725q42 0 68 -21t26 -61q0 -26 -13.5 -59t-37.5 -58l-604 -641h596q40 0 61 -22.5t21 -63.5t-21 -63.5t-61 -22.5h-772q-42 0 -68.5 21t-26.5 61z" />
<glyph unicode="|" d="M545 -362v1978q0 67 69 67q70 0 70 -67v-1978q0 -68 -70 -68q-69 0 -69 68z" />
<glyph unicode="&#xa0;" />
<glyph unicode="&#xa1;" d="M449 1278q0 73 44.5 118.5t118.5 45.5t119 -45.5t45 -118.5t-45 -118.5t-119 -45.5t-118.5 45.5t-44.5 118.5zM492 84l26 805q1 40 27 62t67 22t67.5 -22t27.5 -62l26 -805q1 -39 -26 -61.5t-68 -22.5h-53q-42 0 -68.5 22t-25.5 62z" />
<glyph unicode="&#xa2;" d="M219 573q0 201 118 326t308 133l33 182q9 70 80 58q69 -12 57 -82l-31 -170q109 -23 193 -98q30 -32 28.5 -63t-22.5 -52q-25 -25 -57 -24t-66 24q-45 32 -88 46.5t-102 14.5q-118 0 -195.5 -83.5t-77.5 -211.5t77.5 -211t195.5 -83q64 0 110 16.5t88 52.5q68 51 117 10 q30 -23 31 -60t-27 -65q-121 -118 -319 -118h-25l-31 -176q-12 -69 -79 -58q-70 12 -58 82l31 176q-134 45 -211.5 159t-77.5 275z" />
<glyph unicode="&#xa6;" d="M545 -362v776q0 67 69 67q70 0 70 -67v-776q0 -68 -70 -68q-69 0 -69 68zM545 840v776q0 67 69 67q70 0 70 -67v-776q0 -68 -70 -68q-69 0 -69 68z" />
<glyph unicode="&#xa8;" d="M229 1311q0 65 40.5 106t107.5 41t107 -41t40 -106t-40 -106.5t-107 -41.5t-107.5 41.5t-40.5 106.5zM705 1311q0 65 40 106t107 41t107 -41t40 -106t-40 -106.5t-107 -41.5t-107 41.5t-40 106.5z" />
<glyph unicode="&#xad;" d="M246 553q0 48 29 77t79 29h520q50 0 79.5 -29t29.5 -77t-29.5 -77.5t-79.5 -29.5h-520q-50 0 -79 29.5t-29 77.5z" />
<glyph unicode="&#xb0;" d="M256 1143q0 149 104.5 253.5t253.5 104.5t254 -104.5t105 -253.5t-105 -254t-254 -105t-253.5 105t-104.5 254zM379 1143q0 -100 68.5 -170t166.5 -70t167 70t69 170t-69 169.5t-167 69.5t-166.5 -69.5t-68.5 -169.5z" />
<glyph unicode="&#xb4;" d="M380 1226q3 23 21 36l306 215q35 22 66 9.5t54 -52.5q22 -36 16.5 -72t-40.5 -53l-338 -158q-21 -10 -43 0t-33 31q-12 21 -9 44z" />
<glyph unicode="&#xb8;" d="M501.5 -327q-2.5 33 28.5 59l150 121q23 16 46.5 10.5t43.5 -25.5q44 -48 10 -88l-121 -149q-27 -31 -59.5 -28t-64.5 36q-31 31 -33.5 64z" />
<glyph unicode="&#xbf;" d="M229 350q0 48 7.5 87.5t25.5 72.5t36 57t52 50.5t59.5 44t71.5 45.5q70 43 70 182q0 40 26.5 62t67.5 22t67.5 -22t26.5 -62q0 -128 -29 -199t-108 -117q-45 -26 -70 -43t-55.5 -45t-44.5 -61.5t-14 -73.5q0 -89 59 -144.5t146 -55.5q157 0 204 149q16 53 78 53 q49 0 75 -20t26 -56q0 -49 -29.5 -102t-78.5 -97.5t-122.5 -73t-152.5 -28.5q-165 0 -279.5 105.5t-114.5 269.5zM481 1278q0 73 45 118.5t119 45.5t119 -45.5t45 -118.5t-45 -118.5t-119 -45.5t-119 45.5t-45 118.5z" />
<glyph unicode="&#xc0;" d="M45 70q0 18 4 28l389 1231q18 54 51.5 79.5t92.5 25.5h65q59 0 92.5 -25.5t51.5 -79.5l389 -1231q4 -20 4 -28q0 -35 -29 -59.5t-72 -24.5q-60 0 -77 59l-109 352h-565l-109 -352q-17 -59 -78 -59q-43 0 -71.5 24.5t-28.5 59.5zM383 1783.5q-6 35.5 16 71.5 q23 40 54.5 52.5t66.5 -9.5l305 -215q18 -13 21.5 -35t-8.5 -44q-11 -21 -33 -31t-43 0l-338 158q-35 17 -41 52.5zM385 573h459l-211 697h-37z" />
<glyph unicode="&#xc1;" d="M45 70q0 18 4 28l389 1231q18 54 51.5 79.5t92.5 25.5h65q59 0 92.5 -25.5t51.5 -79.5l389 -1231q4 -20 4 -28q0 -35 -29 -59.5t-72 -24.5q-60 0 -77 59l-109 352h-565l-109 -352q-17 -59 -78 -59q-43 0 -71.5 24.5t-28.5 59.5zM380 1647.5q3 22.5 21 35.5l306 215 q35 22 66 9.5t54 -52.5q22 -36 16.5 -71.5t-40.5 -52.5l-338 -158q-21 -10 -43 0t-33 31q-12 21 -9 43.5zM385 573h459l-211 697h-37z" />
<glyph unicode="&#xc2;" d="M45 70q0 18 4 28l389 1231q18 54 51.5 79.5t92.5 25.5h65q59 0 92.5 -25.5t51.5 -79.5l389 -1231q4 -20 4 -28q0 -35 -29 -59.5t-72 -24.5q-60 0 -77 59l-109 352h-565l-109 -352q-17 -59 -78 -59q-43 0 -71.5 24.5t-28.5 59.5zM254 1628.5q0 24.5 18 38.5l238 195 q46 41 104 41q56 0 105 -41l237 -195q18 -14 18.5 -38.5t-13.5 -41.5q-15 -21 -35 -27t-41 5l-271 157l-270 -157q-21 -11 -41 -5t-35 27q-14 17 -14 41.5zM385 573h459l-211 697h-37z" />
<glyph unicode="&#xc3;" d="M45 70q0 18 4 28l389 1231q18 54 51.5 79.5t92.5 25.5h65q59 0 92.5 -25.5t51.5 -79.5l389 -1231q4 -20 4 -28q0 -35 -29 -59.5t-72 -24.5q-60 0 -77 59l-109 352h-565l-109 -352q-17 -59 -78 -59q-43 0 -71.5 24.5t-28.5 59.5zM257 1744q10 29 44 46q77 43 184 43 q49 0 135 -39t130 -39q21 0 43.5 6.5t43 15.5t27.5 11q32 9 59 -2.5t42 -44.5q15 -32 3.5 -66t-42.5 -51q-83 -43 -185 -43q-47 0 -132.5 39t-131.5 39q-22 0 -44 -6t-41.5 -14.5t-26.5 -10.5q-71 -16 -103 55q-15 32 -5 61zM385 573h459l-211 697h-37z" />
<glyph unicode="&#xc4;" d="M45 70q0 18 4 28l389 1231q18 54 51.5 79.5t92.5 25.5h65q59 0 92.5 -25.5t51.5 -79.5l389 -1231q4 -20 4 -28q0 -35 -29 -59.5t-72 -24.5q-60 0 -77 59l-109 352h-565l-109 -352q-17 -59 -78 -59q-43 0 -71.5 24.5t-28.5 59.5zM229 1733q0 65 40.5 106t107.5 41t107 -41 t40 -106t-40 -106.5t-107 -41.5t-107.5 41.5t-40.5 106.5zM385 573h459l-211 697h-37zM705 1733q0 65 40 106t107 41t107 -41t40 -106t-40 -106.5t-107 -41.5t-107 41.5t-40 106.5z" />
<glyph unicode="&#xc5;" d="M45 70q0 18 4 28l404 1274q-99 76 -99 209q0 113 74 187.5t186 74.5q113 0 188 -75t75 -187q0 -131 -101 -209l404 -1274q4 -10 4 -28q0 -35 -29 -59.5t-72 -24.5q-60 0 -77 59l-109 352h-565l-109 -352q-17 -59 -78 -59q-43 0 -71.5 24.5t-28.5 59.5zM385 573h459 l-211 697h-37zM469 1581q0 -66 41 -108.5t104 -42.5t105.5 42.5t42.5 108.5t-42.5 110t-105.5 44t-104 -44t-41 -110z" />
<glyph unicode="&#xc7;" d="M109 653v127q0 317 134.5 497.5t379.5 180.5q265 0 407 -221q14 -25 14 -57q0 -38 -28.5 -62t-71.5 -24q-36 0 -63 36q-59 80 -117 113t-141 33q-154 0 -238 -133.5t-84 -370.5v-110q0 -237 84.5 -370.5t241.5 -133.5q82 0 139.5 36t118.5 119q29 39 67 39q43 0 72 -25.5 t29 -62.5q0 -31 -15 -57q-69 -108 -173.5 -170t-237.5 -62q-248 0 -383 180.5t-135 497.5zM471.5 -327.5q2.5 -33.5 32.5 -63.5q32 -33 65 -36t60 28l121 149q34 39 -11 88q-20 20 -43.5 25.5t-46.5 -10.5l-149 -121q-31 -26 -28.5 -59.5z" />
<glyph unicode="&#xc8;" d="M229 84q0 -40 27 -62t68 -22h694q40 0 62 23.5t22 64.5t-22 64.5t-62 23.5h-602v475h436q40 0 62 23.5t22 64.5t-22 64.5t-62 23.5h-436v430h583q40 0 62 24t22 65t-22 64.5t-62 23.5h-675q-41 0 -68 -22t-27 -62v-1266zM383 1783.5q-6 35.5 16 71.5q23 40 54.5 52.5 t66.5 -9.5l305 -215q18 -13 21.5 -35t-8.5 -44q-11 -21 -33 -31t-43 0l-338 158q-35 17 -41 52.5z" />
<glyph unicode="&#xc9;" d="M229 84v1266q0 40 27 62t68 22h675q40 0 62 -23.5t22 -64.5t-22 -65t-62 -24h-583v-430h436q40 0 62 -23.5t22 -64.5t-22 -64.5t-62 -23.5h-436v-475h602q40 0 62 -23.5t22 -64.5t-22 -64.5t-62 -23.5h-694q-41 0 -68 22t-27 62zM380 1647.5q3 22.5 21 35.5l306 215 q35 22 66 9.5t54 -52.5q22 -36 16.5 -71.5t-40.5 -52.5l-338 -158q-21 -10 -43 0t-33 31q-12 21 -9 43.5z" />
<glyph unicode="&#xca;" d="M229 84q0 -40 27 -62t68 -22h694q40 0 62 23.5t22 64.5t-22 64.5t-62 23.5h-602v475h436q40 0 62 23.5t22 64.5t-22 64.5t-62 23.5h-436v430h583q40 0 62 24t22 65t-22 64.5t-62 23.5h-675q-41 0 -68 -22t-27 -62v-1266zM254 1628.5q0 24.5 18 38.5l238 195q46 41 104 41 q56 0 105 -41l237 -195q18 -14 18.5 -38.5t-13.5 -41.5q-15 -21 -35 -27t-41 5l-271 157l-270 -157q-21 -11 -41 -5t-35 27q-14 17 -14 41.5z" />
<glyph unicode="&#xcb;" d="M229 84q0 -40 27 -62t68 -22h694q40 0 62 23.5t22 64.5t-22 64.5t-62 23.5h-602v475h436q40 0 62 23.5t22 64.5t-22 64.5t-62 23.5h-436v430h583q40 0 62 24t22 65t-22 64.5t-62 23.5h-675q-41 0 -68 -22t-27 -62v-1266zM229 1733q0 65 40.5 106t107.5 41t107 -41 t40 -106t-40 -106.5t-107 -41.5t-107.5 41.5t-40.5 106.5zM705 1733q0 65 40 106t107 41t107 -41t40 -106t-40 -106.5t-107 -41.5t-107 41.5t-40 106.5z" />
<glyph unicode="&#xcc;" d="M383 1783.5q-6 35.5 16 71.5q23 40 54.5 52.5t66.5 -9.5l305 -215q18 -13 21.5 -35t-8.5 -44q-11 -21 -33 -31t-43 0l-338 158q-35 17 -41 52.5zM520 72v1290q0 40 26.5 62t67.5 22t68 -22t27 -62v-1290q0 -40 -27 -62t-68 -22t-67.5 22t-26.5 62z" />
<glyph unicode="&#xcd;" d="M380 1647.5q3 22.5 21 35.5l306 215q35 22 66 9.5t54 -52.5q22 -36 16.5 -71.5t-40.5 -52.5l-338 -158q-21 -10 -43 0t-33 31q-12 21 -9 43.5zM520 72v1290q0 40 26.5 62t67.5 22t68 -22t27 -62v-1290q0 -40 -27 -62t-68 -22t-67.5 22t-26.5 62z" />
<glyph unicode="&#xce;" d="M254 1628.5q0 24.5 18 38.5l238 195q46 41 104 41q56 0 105 -41l237 -195q18 -14 18.5 -38.5t-13.5 -41.5q-15 -21 -35 -27t-41 5l-271 157l-270 -157q-21 -11 -41 -5t-35 27q-14 17 -14 41.5zM520 72v1290q0 40 26.5 62t67.5 22t68 -22t27 -62v-1290q0 -40 -27 -62 t-68 -22t-67.5 22t-26.5 62z" />
<glyph unicode="&#xcf;" d="M229 1733q0 65 40.5 106t107.5 41t107 -41t40 -106t-40 -106.5t-107 -41.5t-107.5 41.5t-40.5 106.5zM520 72v1290q0 40 26.5 62t67.5 22t68 -22t27 -62v-1290q0 -40 -27 -62t-68 -22t-67.5 22t-26.5 62zM705 1733q0 65 40 106t107 41t107 -41t40 -106t-40 -106.5 t-107 -41.5t-107 41.5t-40 106.5z" />
<glyph unicode="&#xd1;" d="M164 72v1290q0 40 25.5 62t66.5 22q29 0 50 -12t40 -45l537 -986v959q0 40 24.5 62t65.5 22t66.5 -22t25.5 -62v-1290q0 -40 -25.5 -62t-66.5 -22q-58 0 -90 55l-537 987v-958q0 -40 -24.5 -62t-65.5 -22t-66.5 22t-25.5 62zM257 1744q10 29 44 46q77 43 184 43 q49 0 135 -39t130 -39q21 0 43.5 6.5t43 15.5t27.5 11q32 9 59 -2.5t42 -44.5q15 -32 3.5 -66t-42.5 -51q-83 -43 -185 -43q-47 0 -132.5 39t-131.5 39q-22 0 -44 -6t-41.5 -14.5t-26.5 -10.5q-71 -16 -103 55q-15 32 -5 61z" />
<glyph unicode="&#xd2;" d="M109 653v127q0 317 132 497.5t373 180.5t373.5 -181t132.5 -497v-127q0 -316 -132.5 -497t-373.5 -181t-373 180.5t-132 497.5zM301 662q0 -237 81.5 -370.5t231.5 -133.5t232 133.5t82 370.5v110q0 237 -82 370.5t-232 133.5t-231.5 -133.5t-81.5 -370.5v-110z M383 1783.5q-6 35.5 16 71.5q23 40 54.5 52.5t66.5 -9.5l305 -215q18 -13 21.5 -35t-8.5 -44q-11 -21 -33 -31t-43 0l-338 158q-35 17 -41 52.5z" />
<glyph unicode="&#xd3;" d="M109 653v127q0 317 132 497.5t373 180.5t373.5 -181t132.5 -497v-127q0 -316 -132.5 -497t-373.5 -181t-373 180.5t-132 497.5zM301 662q0 -237 81.5 -370.5t231.5 -133.5t232 133.5t82 370.5v110q0 237 -82 370.5t-232 133.5t-231.5 -133.5t-81.5 -370.5v-110z M380 1647.5q3 22.5 21 35.5l306 215q35 22 66 9.5t54 -52.5q22 -36 16.5 -71.5t-40.5 -52.5l-338 -158q-21 -10 -43 0t-33 31q-12 21 -9 43.5z" />
<glyph unicode="&#xd4;" d="M109 653v127q0 317 132 497.5t373 180.5t373.5 -181t132.5 -497v-127q0 -316 -132.5 -497t-373.5 -181t-373 180.5t-132 497.5zM254 1628.5q0 24.5 18 38.5l238 195q46 41 104 41q56 0 105 -41l237 -195q18 -14 18.5 -38.5t-13.5 -41.5q-15 -21 -35 -27t-41 5l-271 157 l-270 -157q-21 -11 -41 -5t-35 27q-14 17 -14 41.5zM301 662q0 -237 81.5 -370.5t231.5 -133.5t232 133.5t82 370.5v110q0 237 -82 370.5t-232 133.5t-231.5 -133.5t-81.5 -370.5v-110z" />
<glyph unicode="&#xd5;" d="M109 653v127q0 317 132 497.5t373 180.5t373.5 -181t132.5 -497v-127q0 -316 -132.5 -497t-373.5 -181t-373 180.5t-132 497.5zM257 1744q10 29 44 46q77 43 184 43q49 0 135 -39t130 -39q21 0 43.5 6.5t43 15.5t27.5 11q32 9 59 -2.5t42 -44.5q15 -32 3.5 -66t-42.5 -51 q-83 -43 -185 -43q-47 0 -132.5 39t-131.5 39q-22 0 -44 -6t-41.5 -14.5t-26.5 -10.5q-71 -16 -103 55q-15 32 -5 61zM301 662q0 -237 81.5 -370.5t231.5 -133.5t232 133.5t82 370.5v110q0 237 -82 370.5t-232 133.5t-231.5 -133.5t-81.5 -370.5v-110z" />
<glyph unicode="&#xd6;" d="M109 653v127q0 317 132 497.5t373 180.5t373.5 -181t132.5 -497v-127q0 -316 -132.5 -497t-373.5 -181t-373 180.5t-132 497.5zM229 1733q0 65 40.5 106t107.5 41t107 -41t40 -106t-40 -106.5t-107 -41.5t-107.5 41.5t-40.5 106.5zM301 662q0 -237 81.5 -370.5 t231.5 -133.5t232 133.5t82 370.5v110q0 237 -82 370.5t-232 133.5t-231.5 -133.5t-81.5 -370.5v-110zM705 1733q0 65 40 106t107 41t107 -41t40 -106t-40 -106.5t-107 -41.5t-107 41.5t-40 106.5z" />
<glyph unicode="&#xd7;" d="M162.5 205.5q1.5 38.5 36.5 73.5l274 274l-274 274q-35 35 -36.5 73.5t32.5 72.5t72 32.5t73 -36.5l274 -275l275 275q35 35 73 36.5t72 -32.5t32.5 -72.5t-36.5 -73.5l-274 -274l274 -274q35 -35 36.5 -73.5t-32.5 -72.5t-72 -32.5t-73 36.5l-275 275l-274 -275 q-35 -35 -73 -36.5t-72 32.5t-32.5 72.5z" />
<glyph unicode="&#xd9;" d="M147 479v883q0 40 26 62t67 22t67.5 -22t26.5 -62v-864q0 -158 69 -250t211 -92q141 0 211 92t70 250v864q0 40 26.5 62t67.5 22t66.5 -22t25.5 -62v-883q0 -230 -123 -367t-344 -137q-222 0 -344.5 137t-122.5 367zM383 1783.5q-6 35.5 16 71.5q23 40 54.5 52.5 t66.5 -9.5l305 -215q18 -13 21.5 -35t-8.5 -44q-11 -21 -33 -31t-43 0l-338 158q-35 17 -41 52.5z" />
<glyph unicode="&#xda;" d="M147 479v883q0 40 26 62t67 22t67.5 -22t26.5 -62v-864q0 -158 69 -250t211 -92q141 0 211 92t70 250v864q0 40 26.5 62t67.5 22t66.5 -22t25.5 -62v-883q0 -230 -123 -367t-344 -137q-222 0 -344.5 137t-122.5 367zM380 1647.5q3 22.5 21 35.5l306 215q35 22 66 9.5 t54 -52.5q22 -36 16.5 -71.5t-40.5 -52.5l-338 -158q-21 -10 -43 0t-33 31q-12 21 -9 43.5z" />
<glyph unicode="&#xdb;" d="M147 479v883q0 40 26 62t67 22t67.5 -22t26.5 -62v-864q0 -158 69 -250t211 -92q141 0 211 92t70 250v864q0 40 26.5 62t67.5 22t66.5 -22t25.5 -62v-883q0 -230 -123 -367t-344 -137q-222 0 -344.5 137t-122.5 367zM254 1628.5q0 24.5 18 38.5l238 195q46 41 104 41 q56 0 105 -41l237 -195q18 -14 18.5 -38.5t-13.5 -41.5q-15 -21 -35 -27t-41 5l-271 157l-270 -157q-21 -11 -41 -5t-35 27q-14 17 -14 41.5z" />
<glyph unicode="&#xdc;" d="M147 479v883q0 40 26 62t67 22t67.5 -22t26.5 -62v-864q0 -158 69 -250t211 -92q141 0 211 92t70 250v864q0 40 26.5 62t67.5 22t66.5 -22t25.5 -62v-883q0 -230 -123 -367t-344 -137q-222 0 -344.5 137t-122.5 367zM229 1733q0 65 40.5 106t107.5 41t107 -41t40 -106 t-40 -106.5t-107 -41.5t-107.5 41.5t-40.5 106.5zM705 1733q0 65 40 106t107 41t107 -41t40 -106t-40 -106.5t-107 -41.5t-107 41.5t-40 106.5z" />
<glyph unicode="&#xdd;" d="M78 1362q0 32 33 58t73 26q46 0 70 -43l360 -627l361 627q24 43 69 43q40 0 72.5 -26t32.5 -58q0 -30 -12 -51l-428 -740v-499q0 -40 -27 -62t-68 -22t-67.5 22t-26.5 62v499l-428 740q-14 25 -14 51zM380 1647.5q3 22.5 21 35.5l306 215q35 22 66 9.5t54 -52.5 q22 -36 16.5 -71.5t-40.5 -52.5l-338 -158q-21 -10 -43 0t-33 31q-12 21 -9 43.5z" />
<glyph unicode="&#xe0;" d="M143 317q0 304 512 304q97 0 215 -11v47q0 40 -11 74t-37 65.5t-77 49.5t-124 18q-41 0 -90.5 -9t-80.5 -17.5t-92 -26.5q-33 -9 -63 6.5t-39 48.5q-10 36 4.5 63.5t46.5 39.5q148 63 326 63q206 0 311 -98.5t105 -259.5v-420q0 -30 4 -95.5t4 -86.5q0 -38 -24.5 -60 t-61.5 -22q-73 0 -92 84q-51 -41 -134 -66.5t-178 -25.5q-192 0 -308 95t-116 240zM319 311q0 -65 68 -114.5t180 -49.5q180 0 303 111v180q-68 23 -213 23q-338 0 -338 -150zM383 1362q-6 36 16 72q23 40 54.5 52.5t66.5 -9.5l305 -215q18 -13 21.5 -35.5t-8.5 -44.5 q-11 -21 -33 -31t-43 0l-338 158q-35 17 -41 53z" />
<glyph unicode="&#xe1;" d="M143 317q0 304 512 304q97 0 215 -11v47q0 40 -11 74t-37 65.5t-77 49.5t-124 18q-41 0 -90.5 -9t-80.5 -17.5t-92 -26.5q-33 -9 -63 6.5t-39 48.5q-10 36 4.5 63.5t46.5 39.5q148 63 326 63q206 0 311 -98.5t105 -259.5v-420q0 -30 4 -95.5t4 -86.5q0 -38 -24.5 -60 t-61.5 -22q-73 0 -92 84q-51 -41 -134 -66.5t-178 -25.5q-192 0 -308 95t-116 240zM319 311q0 -65 68 -114.5t180 -49.5q180 0 303 111v180q-68 23 -213 23q-338 0 -338 -150zM380 1226q3 23 21 36l306 215q35 22 66 9.5t54 -52.5q22 -36 16.5 -72t-40.5 -53l-338 -158 q-21 -10 -43 0t-33 31q-12 21 -9 44z" />
<glyph unicode="&#xe2;" d="M143 317q0 304 512 304q97 0 215 -11v47q0 40 -11 74t-37 65.5t-77 49.5t-124 18q-41 0 -90.5 -9t-80.5 -17.5t-92 -26.5q-33 -9 -63 6.5t-39 48.5q-10 36 4.5 63.5t46.5 39.5q148 63 326 63q206 0 311 -98.5t105 -259.5v-420q0 -30 4 -95.5t4 -86.5q0 -38 -24.5 -60 t-61.5 -22q-73 0 -92 84q-51 -41 -134 -66.5t-178 -25.5q-192 0 -308 95t-116 240zM254 1206.5q0 24.5 18 38.5l238 195q46 41 104 41q56 0 105 -41l237 -195q18 -14 18.5 -38.5t-13.5 -41.5q-15 -21 -35 -27t-41 5l-271 157l-270 -157q-21 -11 -41 -5t-35 27 q-14 17 -14 41.5zM319 311q0 -65 68 -114.5t180 -49.5q180 0 303 111v180q-68 23 -213 23q-338 0 -338 -150z" />
<glyph unicode="&#xe3;" d="M143 317q0 304 512 304q97 0 215 -11v47q0 40 -11 74t-37 65.5t-77 49.5t-124 18q-41 0 -90.5 -9t-80.5 -17.5t-92 -26.5q-33 -9 -63 6.5t-39 48.5q-10 36 4.5 63.5t46.5 39.5q148 63 326 63q206 0 311 -98.5t105 -259.5v-420q0 -30 4 -95.5t4 -86.5q0 -38 -24.5 -60 t-61.5 -22q-73 0 -92 84q-51 -41 -134 -66.5t-178 -25.5q-192 0 -308 95t-116 240zM257 1322.5q10 28.5 44 45.5q77 43 184 43q49 0 135 -39t130 -39q21 0 43.5 6.5t43 15.5t27.5 11q32 9 59 -2.5t42 -44.5q15 -32 3.5 -66t-42.5 -51q-83 -43 -185 -43q-47 0 -132.5 39 t-131.5 39q-22 0 -44 -6t-41.5 -14.5t-26.5 -10.5q-34 -7 -61 7.5t-42 48.5q-15 32 -5 60.5zM319 311q0 -65 68 -114.5t180 -49.5q180 0 303 111v180q-68 23 -213 23q-338 0 -338 -150z" />
<glyph unicode="&#xe4;" d="M143 317q0 304 512 304q97 0 215 -11v47q0 40 -11 74t-37 65.5t-77 49.5t-124 18q-41 0 -90.5 -9t-80.5 -17.5t-92 -26.5q-33 -9 -63 6.5t-39 48.5q-10 36 4.5 63.5t46.5 39.5q148 63 326 63q206 0 311 -98.5t105 -259.5v-420q0 -30 4 -95.5t4 -86.5q0 -38 -24.5 -60 t-61.5 -22q-73 0 -92 84q-51 -41 -134 -66.5t-178 -25.5q-192 0 -308 95t-116 240zM229 1311q0 65 40.5 106t107.5 41t107 -41t40 -106t-40 -106.5t-107 -41.5t-107.5 41.5t-40.5 106.5zM319 311q0 -65 68 -114.5t180 -49.5q180 0 303 111v180q-68 23 -213 23 q-338 0 -338 -150zM705 1311q0 65 40 106t107 41t107 -41t40 -106t-40 -106.5t-107 -41.5t-107 41.5t-40 106.5z" />
<glyph unicode="&#xe5;" d="M143 317q0 304 512 304q97 0 215 -11v47q0 40 -11 74t-37 65.5t-77 49.5t-124 18q-41 0 -90.5 -9t-80.5 -17.5t-92 -26.5q-33 -9 -63 6.5t-39 48.5q-10 36 4.5 63.5t46.5 39.5q148 63 326 63q206 0 311 -98.5t105 -259.5v-420q0 -30 4 -95.5t4 -86.5q0 -38 -24.5 -60 t-61.5 -22q-73 0 -92 84q-51 -41 -134 -66.5t-178 -25.5q-192 0 -308 95t-116 240zM319 311q0 -65 68 -114.5t180 -49.5q180 0 303 111v180q-68 23 -213 23q-338 0 -338 -150zM354 1413q0 113 74 187.5t186 74.5q113 0 188 -75t75 -187t-75 -186t-188 -74q-112 0 -186 73.5 t-74 186.5zM469 1413q0 -66 41 -108.5t104 -42.5t105.5 42.5t42.5 108.5t-42.5 110t-105.5 44t-104 -44t-41 -110z" />
<glyph unicode="&#xe7;" d="M160 506q0 237 143 381.5t371 144.5q256 0 401 -178q56 -66 -24 -125q-32 -23 -67.5 -18t-63.5 37q-93 110 -246 110q-145 0 -235.5 -97.5t-90.5 -254.5t90.5 -254.5t235.5 -97.5q164 0 256 122q53 68 121 27q36 -22 48.5 -57t-9.5 -70q-69 -94 -176 -145t-240 -51 q-228 0 -371 144.5t-143 381.5zM471.5 -327.5q2.5 -33.5 32.5 -63.5q32 -33 65 -36t60 28l121 149q34 39 -11 88q-20 20 -43.5 25.5t-46.5 -10.5l-149 -121q-31 -26 -28.5 -59.5z" />
<glyph unicode="&#xe8;" d="M141 506q0 111 38.5 209.5t103.5 167.5t153.5 109t186.5 40q88 0 163 -27.5t128.5 -75t91.5 -112t56.5 -139t18.5 -154.5q0 -57 -59 -57h-692q10 -141 100 -227t225 -86q153 0 275 112q35 30 70 28.5t59 -28.5q58 -68 10 -119q-160 -167 -414 -167q-228 0 -371 144.5 t-143 381.5zM340 610h551q-19 119 -89 183.5t-179 64.5q-97 0 -176.5 -68t-106.5 -180zM383 1362q-6 36 16 72q23 40 54.5 52.5t66.5 -9.5l305 -215q18 -13 21.5 -35.5t-8.5 -44.5q-11 -21 -33 -31t-43 0l-338 158q-35 17 -41 53z" />
<glyph unicode="&#xe9;" d="M141 506q0 111 38.5 209.5t103.5 167.5t153.5 109t186.5 40q88 0 163 -27.5t128.5 -75t91.5 -112t56.5 -139t18.5 -154.5q0 -57 -59 -57h-692q10 -141 100 -227t225 -86q153 0 275 112q35 30 70 28.5t59 -28.5q58 -68 10 -119q-160 -167 -414 -167q-228 0 -371 144.5 t-143 381.5zM340 610h551q-19 119 -89 183.5t-179 64.5q-97 0 -176.5 -68t-106.5 -180zM380 1226q3 23 21 36l306 215q35 22 66 9.5t54 -52.5q22 -36 16.5 -72t-40.5 -53l-338 -158q-21 -10 -43 0t-33 31q-12 21 -9 44z" />
<glyph unicode="&#xea;" d="M141 506q0 111 38.5 209.5t103.5 167.5t153.5 109t186.5 40q88 0 163 -27.5t128.5 -75t91.5 -112t56.5 -139t18.5 -154.5q0 -57 -59 -57h-692q10 -141 100 -227t225 -86q153 0 275 112q35 30 70 28.5t59 -28.5q58 -68 10 -119q-160 -167 -414 -167q-228 0 -371 144.5 t-143 381.5zM254 1206.5q0 24.5 18 38.5l238 195q46 41 104 41q56 0 105 -41l237 -195q18 -14 18.5 -38.5t-13.5 -41.5q-15 -21 -35 -27t-41 5l-271 157l-270 -157q-21 -11 -41 -5t-35 27q-14 17 -14 41.5zM340 610h551q-19 119 -89 183.5t-179 64.5q-97 0 -176.5 -68 t-106.5 -180z" />
<glyph unicode="&#xeb;" d="M141 506q0 111 38.5 209.5t103.5 167.5t153.5 109t186.5 40q88 0 163 -27.5t128.5 -75t91.5 -112t56.5 -139t18.5 -154.5q0 -57 -59 -57h-692q10 -141 100 -227t225 -86q153 0 275 112q35 30 70 28.5t59 -28.5q58 -68 10 -119q-160 -167 -414 -167q-228 0 -371 144.5 t-143 381.5zM229 1311q0 65 40.5 106t107.5 41t107 -41t40 -106t-40 -106.5t-107 -41.5t-107.5 41.5t-40.5 106.5zM340 610h551q-19 119 -89 183.5t-179 64.5q-97 0 -176.5 -68t-106.5 -180zM705 1311q0 65 40 106t107 41t107 -41t40 -106t-40 -106.5t-107 -41.5t-107 41.5 t-40 106.5z" />
<glyph unicode="&#xec;" d="M383 1362q-6 36 16 72q23 40 54.5 52.5t66.5 -9.5l305 -215q18 -13 21.5 -35.5t-8.5 -44.5q-11 -21 -33 -31t-43 0l-338 158q-35 17 -41 53zM522 70v870q0 39 25.5 60.5t66.5 21.5t67 -21.5t26 -60.5v-870q0 -39 -26 -60.5t-67 -21.5t-66.5 21.5t-25.5 60.5z" />
<glyph unicode="&#xed;" d="M380 1226q3 23 21 36l306 215q35 22 66 9.5t54 -52.5q22 -36 16.5 -72t-40.5 -53l-338 -158q-21 -10 -43 0t-33 31q-12 21 -9 44zM522 70v870q0 39 25.5 60.5t66.5 21.5t67 -21.5t26 -60.5v-870q0 -39 -26 -60.5t-67 -21.5t-66.5 21.5t-25.5 60.5z" />
<glyph unicode="&#xee;" d="M254 1206.5q0 24.5 18 38.5l238 195q46 41 104 41q56 0 105 -41l237 -195q18 -14 18.5 -38.5t-13.5 -41.5q-15 -21 -35 -27t-41 5l-271 157l-270 -157q-21 -11 -41 -5t-35 27q-14 17 -14 41.5zM522 70v870q0 39 25.5 60.5t66.5 21.5t67 -21.5t26 -60.5v-870 q0 -39 -26 -60.5t-67 -21.5t-66.5 21.5t-25.5 60.5z" />
<glyph unicode="&#xef;" d="M229 1311q0 65 40.5 106t107.5 41t107 -41t40 -106t-40 -106.5t-107 -41.5t-107.5 41.5t-40.5 106.5zM522 70v870q0 39 25.5 60.5t66.5 21.5t67 -21.5t26 -60.5v-870q0 -39 -26 -60.5t-67 -21.5t-66.5 21.5t-25.5 60.5zM705 1311q0 65 40 106t107 41t107 -41t40 -106 t-40 -106.5t-107 -41.5t-107 41.5t-40 106.5z" />
<glyph unicode="&#xf1;" d="M164 940q0 -21 4 -86.5t4 -95.5v-686q0 -39 24.5 -60.5t65.5 -21.5t65.5 21.5t24.5 60.5v616q41 72 139 122t193 50q50 0 87.5 -16t60.5 -43t37 -69t19 -87.5t5 -105.5v-467q0 -39 24.5 -60.5t65.5 -21.5t65.5 21.5t24.5 60.5v489q0 226 -87.5 348.5t-285.5 122.5 q-97 0 -191.5 -36t-162.5 -93q0 57 -28 88t-66 31t-63 -22t-25 -60zM257 1322.5q10 28.5 44 45.5q77 43 184 43q49 0 135 -39t130 -39q21 0 43.5 6.5t43 15.5t27.5 11q32 9 59 -2.5t42 -44.5q15 -32 3.5 -66t-42.5 -51q-83 -43 -185 -43q-47 0 -132.5 39t-131.5 39 q-22 0 -44 -6t-41.5 -14.5t-26.5 -10.5q-34 -7 -61 7.5t-42 48.5q-15 32 -5 60.5z" />
<glyph unicode="&#xf2;" d="M100 506q0 237 143 381.5t371 144.5t371 -144.5t143 -381.5t-143 -381.5t-371 -144.5t-371 144.5t-143 381.5zM289 506q0 -157 90 -254.5t235 -97.5t235.5 97.5t90.5 254.5t-90.5 254.5t-235.5 97.5t-235 -97.5t-90 -254.5zM383 1362q-6 36 16 72q23 40 54.5 52.5 t66.5 -9.5l305 -215q18 -13 21.5 -35.5t-8.5 -44.5q-11 -21 -33 -31t-43 0l-338 158q-35 17 -41 53z" />
<glyph unicode="&#xf3;" d="M100 506q0 237 143 381.5t371 144.5t371 -144.5t143 -381.5t-143 -381.5t-371 -144.5t-371 144.5t-143 381.5zM289 506q0 -157 90 -254.5t235 -97.5t235.5 97.5t90.5 254.5t-90.5 254.5t-235.5 97.5t-235 -97.5t-90 -254.5zM380 1226q3 23 21 36l306 215q35 22 66 9.5 t54 -52.5q22 -36 16.5 -72t-40.5 -53l-338 -158q-21 -10 -43 0t-33 31q-12 21 -9 44z" />
<glyph unicode="&#xf4;" d="M100 506q0 237 143 381.5t371 144.5t371 -144.5t143 -381.5t-143 -381.5t-371 -144.5t-371 144.5t-143 381.5zM254 1206.5q0 24.5 18 38.5l238 195q46 41 104 41q56 0 105 -41l237 -195q18 -14 18.5 -38.5t-13.5 -41.5q-15 -21 -35 -27t-41 5l-271 157l-270 -157 q-21 -11 -41 -5t-35 27q-14 17 -14 41.5zM289 506q0 -157 90 -254.5t235 -97.5t235.5 97.5t90.5 254.5t-90.5 254.5t-235.5 97.5t-235 -97.5t-90 -254.5z" />
<glyph unicode="&#xf5;" d="M100 506q0 237 143 381.5t371 144.5t371 -144.5t143 -381.5t-143 -381.5t-371 -144.5t-371 144.5t-143 381.5zM257 1322.5q10 28.5 44 45.5q77 43 184 43q49 0 135 -39t130 -39q21 0 43.5 6.5t43 15.5t27.5 11q32 9 59 -2.5t42 -44.5q15 -32 3.5 -66t-42.5 -51 q-83 -43 -185 -43q-47 0 -132.5 39t-131.5 39q-22 0 -44 -6t-41.5 -14.5t-26.5 -10.5q-34 -7 -61 7.5t-42 48.5q-15 32 -5 60.5zM289 506q0 -157 90 -254.5t235 -97.5t235.5 97.5t90.5 254.5t-90.5 254.5t-235.5 97.5t-235 -97.5t-90 -254.5z" />
<glyph unicode="&#xf6;" d="M100 506q0 237 143 381.5t371 144.5t371 -144.5t143 -381.5t-143 -381.5t-371 -144.5t-371 144.5t-143 381.5zM229 1311q0 65 40.5 106t107.5 41t107 -41t40 -106t-40 -106.5t-107 -41.5t-107.5 41.5t-40.5 106.5zM289 506q0 -157 90 -254.5t235 -97.5t235.5 97.5 t90.5 254.5t-90.5 254.5t-235.5 97.5t-235 -97.5t-90 -254.5zM705 1311q0 65 40 106t107 41t107 -41t40 -106t-40 -106.5t-107 -41.5t-107 41.5t-40 106.5z" />
<glyph unicode="&#xf9;" d="M156 451q0 -110 19.5 -194t62.5 -147.5t116 -96.5t174 -33q97 0 192 36t163 93q0 -57 28 -88t66 -31t63 22t25 60q0 21 -4 86.5t-4 95.5v686q0 39 -24.5 60.5t-65.5 21.5t-65.5 -21.5t-24.5 -60.5v-616q-41 -72 -139 -122t-193 -50q-50 0 -87.5 16t-60.5 43t-37 69 t-19 87.5t-5 105.5v467q0 39 -24.5 60.5t-65.5 21.5t-65.5 -21.5t-24.5 -60.5v-489zM383 1362q-6 36 16 72q23 40 54.5 52.5t66.5 -9.5l305 -215q18 -13 21.5 -35.5t-8.5 -44.5q-11 -21 -33 -31t-43 0l-338 158q-35 17 -41 53z" />
<glyph unicode="&#xfa;" d="M156 451v489q0 39 24.5 60.5t65.5 21.5t65.5 -21.5t24.5 -60.5v-467q0 -60 5 -105.5t19 -87.5t37 -69t60.5 -43t87.5 -16q95 0 193 50t139 122v616q0 39 24.5 60.5t65.5 21.5t65.5 -21.5t24.5 -60.5v-686q0 -30 4 -95.5t4 -86.5q0 -38 -25 -60t-63 -22t-66 31t-28 88 q-68 -57 -163 -93t-192 -36q-101 0 -174 33t-116 96.5t-62.5 147.5t-19.5 194zM380 1226q3 23 21 36l306 215q35 22 66 9.5t54 -52.5q22 -36 16.5 -72t-40.5 -53l-338 -158q-21 -10 -43 0t-33 31q-12 21 -9 44z" />
<glyph unicode="&#xfb;" d="M156 451q0 -110 19.5 -194t62.5 -147.5t116 -96.5t174 -33q97 0 192 36t163 93q0 -57 28 -88t66 -31t63 22t25 60q0 21 -4 86.5t-4 95.5v686q0 39 -24.5 60.5t-65.5 21.5t-65.5 -21.5t-24.5 -60.5v-616q-41 -72 -139 -122t-193 -50q-50 0 -87.5 16t-60.5 43t-37 69 t-19 87.5t-5 105.5v467q0 39 -24.5 60.5t-65.5 21.5t-65.5 -21.5t-24.5 -60.5v-489zM254 1206.5q0 24.5 18 38.5l238 195q46 41 104 41q56 0 105 -41l237 -195q18 -14 18.5 -38.5t-13.5 -41.5q-15 -21 -35 -27t-41 5l-271 157l-270 -157q-21 -11 -41 -5t-35 27 q-14 17 -14 41.5z" />
<glyph unicode="&#xfc;" d="M156 451q0 -110 19.5 -194t62.5 -147.5t116 -96.5t174 -33q97 0 192 36t163 93q0 -57 28 -88t66 -31t63 22t25 60q0 21 -4 86.5t-4 95.5v686q0 39 -24.5 60.5t-65.5 21.5t-65.5 -21.5t-24.5 -60.5v-616q-41 -72 -139 -122t-193 -50q-50 0 -87.5 16t-60.5 43t-37 69 t-19 87.5t-5 105.5v467q0 39 -24.5 60.5t-65.5 21.5t-65.5 -21.5t-24.5 -60.5v-489zM229 1311q0 65 40.5 106t107.5 41t107 -41t40 -106t-40 -106.5t-107 -41.5t-107.5 41.5t-40.5 106.5zM705 1311q0 65 40 106t107 41t107 -41t40 -106t-40 -106.5t-107 -41.5t-107 41.5 t-40 106.5z" />
<glyph unicode="&#xfd;" d="M84 924q0 34 33 62t76 28q47 0 75 -51l346 -658l347 658q25 51 75 51q42 0 75.5 -28t33.5 -62q0 -21 -6 -31l-695 -1274q-25 -51 -75 -51q-47 0 -78 29t-31 71q0 16 6 31l242 424l-418 770q-6 15 -6 31zM380 1226q3 23 21 36l306 215q35 22 66 9.5t54 -52.5 q22 -36 16.5 -72t-40.5 -53l-338 -158q-21 -10 -43 0t-33 31q-12 21 -9 44z" />
<glyph unicode="&#xff;" d="M84 924q0 34 33 62t76 28q47 0 75 -51l346 -658l347 658q25 51 75 51q42 0 75.5 -28t33.5 -62q0 -21 -6 -31l-695 -1274q-25 -51 -75 -51q-47 0 -78 29t-31 71q0 16 6 31l242 424l-418 770q-6 15 -6 31zM229 1311q0 65 40.5 106t107.5 41t107 -41t40 -106t-40 -106.5 t-107 -41.5t-107.5 41.5t-40.5 106.5zM705 1311q0 65 40 106t107 41t107 -41t40 -106t-40 -106.5t-107 -41.5t-107 41.5t-40 106.5z" />
<glyph unicode="&#x152;" d="M104 653v127q0 314 131.5 484t374.5 170h457q40 0 62 -23.5t22 -64.5t-22 -65t-62 -24h-283v-430h203q40 0 62 -23.5t22 -64.5t-22 -64.5t-62 -23.5h-203v-475h291q40 0 62 -23.5t22 -64.5t-22 -64.5t-62 -23.5h-477q-237 5 -365.5 174t-128.5 479zM297 662 q0 -230 77.5 -352.5t223.5 -127.5v1069q-147 -5 -224 -127t-77 -352v-110z" />
<glyph unicode="&#x153;" d="M96 506q0 237 145 381.5t382 144.5q124 0 225.5 -42t166.5 -112.5t100.5 -161.5t35.5 -192q0 -57 -59 -57h-390v-311q83 7 139.5 31.5t127.5 78.5q37 27 71 27t58 -27q59 -70 10 -119q-86 -84 -200 -125.5t-277 -41.5q-243 0 -389 145t-146 381zM285 506 q0 -137 70.5 -230t191.5 -116v692q-121 -23 -191.5 -116t-70.5 -230zM702 610h259q-15 98 -83 161.5t-176 80.5v-242z" />
<glyph unicode="&#x178;" d="M78 1362q0 -26 14 -51l428 -740v-499q0 -40 26.5 -62t67.5 -22t68 22t27 62v499l428 740q12 21 12 51q0 32 -32.5 58t-72.5 26q-45 0 -69 -43l-361 -627l-360 627q-24 43 -70 43q-40 0 -73 -26t-33 -58zM229 1733q0 65 40.5 106t107.5 41t107 -41t40 -106t-40 -106.5 t-107 -41.5t-107.5 41.5t-40.5 106.5zM705 1733q0 65 40 106t107 41t107 -41t40 -106t-40 -106.5t-107 -41.5t-107 41.5t-40 106.5z" />
<glyph unicode="&#x2c6;" d="M254 1206.5q0 24.5 18 38.5l238 195q46 41 104 41q56 0 105 -41l237 -195q18 -14 18.5 -38.5t-13.5 -41.5q-15 -21 -35 -27t-41 5l-271 157l-270 -157q-21 -11 -41 -5t-35 27q-14 17 -14 41.5z" />
<glyph unicode="&#x2dc;" d="M257 1322.5q10 28.5 44 45.5q77 43 184 43q49 0 135 -39t130 -39q21 0 43.5 6.5t43 15.5t27.5 11q32 9 59 -2.5t42 -44.5q15 -32 3.5 -66t-42.5 -51q-83 -43 -185 -43q-47 0 -132.5 39t-131.5 39q-22 0 -44 -6t-41.5 -14.5t-26.5 -10.5q-34 -7 -61 7.5t-42 48.5 q-15 32 -5 60.5z" />
<glyph unicode="&#x2000;" horiz-adv-x="956" />
<glyph unicode="&#x2001;" horiz-adv-x="1912" />
<glyph unicode="&#x2002;" horiz-adv-x="956" />
<glyph unicode="&#x2003;" horiz-adv-x="1912" />
<glyph unicode="&#x2004;" horiz-adv-x="637" />
<glyph unicode="&#x2005;" horiz-adv-x="478" />
<glyph unicode="&#x2006;" horiz-adv-x="318" />
<glyph unicode="&#x2007;" horiz-adv-x="318" />
<glyph unicode="&#x2008;" horiz-adv-x="239" />
<glyph unicode="&#x2009;" horiz-adv-x="382" />
<glyph unicode="&#x200a;" horiz-adv-x="106" />
<glyph unicode="&#x2010;" d="M246 553q0 48 29 77t79 29h520q50 0 79.5 -29t29.5 -77t-29.5 -77.5t-79.5 -29.5h-520q-50 0 -79 29.5t-29 77.5z" />
<glyph unicode="&#x2011;" d="M246 553q0 48 29 77t79 29h520q50 0 79.5 -29t29.5 -77t-29.5 -77.5t-79.5 -29.5h-520q-50 0 -79 29.5t-29 77.5z" />
<glyph unicode="&#x2012;" d="M246 553q0 48 29 77t79 29h520q50 0 79.5 -29t29.5 -77t-29.5 -77.5t-79.5 -29.5h-520q-50 0 -79 29.5t-29 77.5z" />
<glyph unicode="&#x2013;" d="M123 553q0 47 27.5 73.5t78.5 26.5h770q51 0 79 -26.5t28 -73.5t-28 -73.5t-79 -26.5h-770q-51 0 -78.5 26.5t-27.5 73.5z" />
<glyph unicode="&#x2014;" d="M20 553q0 46 28 72t79 26h975q51 0 78.5 -26t27.5 -72t-27.5 -72t-78.5 -26h-975q-51 0 -79 26t-28 72z" />
<glyph unicode="&#x2018;" d="M438 1108q0 290 264 387q26 9 49 0.5t35 -33.5q11 -23 4 -48t-28 -38q-51 -34 -78.5 -54.5t-52.5 -50.5t-25 -57q0 -21 5 -32t10.5 -14t23 -7.5t29.5 -9.5q51 -22 82.5 -59.5t31.5 -110.5t-44.5 -118.5t-118.5 -45.5q-103 0 -145 77t-42 214z" />
<glyph unicode="&#x2019;" d="M438 861q7 25 29 38q51 34 78.5 54.5t52.5 50.5t25 57q0 21 -5 32t-10.5 14t-23 7.5t-29.5 9.5q-52 22 -83.5 59.5t-31.5 110.5t45 118.5t119 45.5q103 0 145 -77t42 -214q0 -290 -265 -387q-26 -9 -49 -0.5t-35 33.5q-11 23 -4 48z" />
<glyph unicode="&#x201c;" d="M180 1108q0 290 264 387q26 9 49 0.5t35 -33.5q11 -23 4 -48t-28 -38q-51 -34 -78.5 -54.5t-52.5 -50.5t-25 -57q0 -21 5 -32t10.5 -14t23 -7.5t29.5 -9.5q51 -22 82.5 -59.5t31.5 -110.5t-44.5 -118.5t-118.5 -45.5q-103 0 -145 77t-42 214zM692 1108q0 290 264 387 q26 9 49 0.5t35 -33.5q11 -23 4 -48t-28 -38q-51 -34 -78.5 -54.5t-52.5 -50.5t-25 -57q0 -21 5 -32t10.5 -14t23 -7.5t29.5 -9.5q51 -22 82.5 -59.5t31.5 -110.5t-44.5 -118.5t-118.5 -45.5q-103 0 -145 77t-42 214z" />
<glyph unicode="&#x201d;" d="M184 861q7 25 29 38q51 34 78.5 54.5t52.5 50.5t25 57q0 21 -5 32t-10.5 14t-23 7.5t-29.5 9.5q-52 22 -83.5 59.5t-31.5 110.5t45 118.5t119 45.5q103 0 145 -77t42 -214q0 -290 -265 -387q-26 -9 -49 -0.5t-35 33.5q-11 23 -4 48zM696 861q7 25 29 38q51 34 78.5 54.5 t52.5 50.5t25 57q0 21 -5 32t-10.5 14t-23 7.5t-29.5 9.5q-52 22 -83.5 59.5t-31.5 110.5t45 118.5t119 45.5q103 0 145 -77t42 -214q0 -290 -265 -387q-26 -9 -49 -0.5t-35 33.5q-11 23 -4 48z" />
<glyph unicode="&#x2022;" d="M295 555q0 132 93.5 225.5t225.5 93.5t226 -93.5t94 -225.5t-94 -225.5t-226 -93.5t-225.5 93.5t-93.5 225.5z" />
<glyph unicode="&#x2026;" horiz-adv-x="2457" d="M256 164q0 76 47.5 124t124.5 48t124.5 -48t47.5 -124t-47.5 -124t-124.5 -48t-124.5 48t-47.5 124zM1057 152q0 76 47.5 124t124.5 48t124.5 -48t47.5 -124t-47.5 -124t-124.5 -48t-124.5 48t-47.5 124zM1858 164q0 76 47.5 124t124.5 48t124.5 -48t47.5 -124 t-47.5 -124t-124.5 -48t-124.5 48t-47.5 124z" />
<glyph unicode="&#x202f;" horiz-adv-x="382" />
<glyph unicode="&#x205f;" horiz-adv-x="478" />
<glyph unicode="&#x20ac;" d="M31 561q0 43 23.5 70.5t66.5 27.5h78v43v35q0 44 2 64h-109q-61 0 -61 49q0 43 23.5 70.5t66.5 27.5h102q45 182 172.5 277.5t317.5 95.5q254 0 389 -135q61 -61 8 -121q-24 -27 -59.5 -30t-67.5 24q-94 84 -270 84q-100 0 -175.5 -50t-113.5 -145h381q61 0 61 -49 q0 -43 -23.5 -70.5t-66.5 -27.5h-387q-2 -23 -2 -72v-12q0 -40 2 -58h340q62 0 62 -49q0 -43 -24 -70.5t-67 -27.5h-282q36 -107 114.5 -164t184.5 -57q82 0 153.5 25t118.5 69q29 26 64 26t61 -26q56 -56 -2 -125q-59 -69 -163 -108t-232 -39q-197 0 -327.5 102t-172.5 297 h-125q-61 0 -61 49z" />
<glyph unicode="&#x25fc;" horiz-adv-x="1024" d="M0 0v1024h1024v-1024h-1024z" />
<glyph unicode="&#xfb01;" d="M111 918q0 40 21.5 63t60.5 23h110v63q0 234 96 326t340 92h123q39 0 61.5 -25t22.5 -65q0 -41 -28.5 -65.5t-79.5 -24.5q-13 0 -65 4t-68 4q-71 0 -113.5 -12.5t-66 -45.5t-31 -77.5t-7.5 -120.5v-53h478q41 0 66.5 -21.5t25.5 -60.5v-863q0 -39 -25.5 -60.5 t-66.5 -21.5t-67 21.5t-26 60.5v772h-385v-761q0 -39 -25.5 -60.5t-66.5 -21.5t-66.5 21.5t-25.5 60.5v761h-110q-39 0 -60.5 23.5t-21.5 63.5z" />
<glyph unicode="&#xfb02;" d="M86 918q0 40 21.5 63t60.5 23h111v63q0 234 96 326t340 92h262q41 0 66.5 -21.5t25.5 -60.5v-1333q0 -39 -25.5 -60.5t-66.5 -21.5t-66.5 21.5t-25.5 60.5v1243q-47 -8 -72 -8q-13 0 -65 4t-68 4q-71 0 -113.5 -12.5t-65.5 -46t-30.5 -77.5t-7.5 -120v-53h192 q39 0 60.5 -23t21.5 -63t-21.5 -63.5t-60.5 -23.5h-192v-761q0 -39 -25.5 -60.5t-66.5 -21.5t-66.5 21.5t-25.5 60.5v761h-111q-39 0 -60.5 23.5t-21.5 63.5z" />
</font>
</defs>
</svg>
