<?xml version="1.0" standalone="no"?>
<!DOCTYPE svg PUBLIC "-//W3C//DTD SVG 1.1//EN" "http://www.w3.org/Graphics/SVG/1.1/DTD/svg11.dtd" >
<svg xmlns="http://www.w3.org/2000/svg">
<metadata></metadata>
<defs>
<font id="sans_romanrotalic" horiz-adv-x="1705" >
<font-face units-per-em="2048" ascent="1536" descent="-512" />
<missing-glyph horiz-adv-x="532" />
<glyph horiz-adv-x="2048" />
<glyph horiz-adv-x="2048" />
<glyph unicode="&#xd;" horiz-adv-x="2048" />
<glyph unicode=" "  horiz-adv-x="532" />
<glyph unicode="&#x09;" horiz-adv-x="532" />
<glyph unicode="&#xa0;" horiz-adv-x="532" />
<glyph unicode="!" horiz-adv-x="694" d="M127 147q12 60 60 90.5t110 18.5q60 -12 91.5 -60t19.5 -108q-13 -59 -61 -88.5t-109 -17.5t-92.5 59t-18.5 106zM236 408l186 1032l235 -51l-249 -1018z" />
<glyph unicode="&#x22;" horiz-adv-x="1021" d="M293 868l100 473l213 -45l-207 -450zM653 793l101 473l213 -47l-207 -449z" />
<glyph unicode="#" horiz-adv-x="1107" d="M33 457l33 153l192 -41l111 256l-246 52l33 155l278 -59l150 336l157 -33l-149 -338l223 -47l148 338l159 -35l-149 -336l160 -35l-33 -153l-193 41l-110 -256l245 -52l-32 -155l-279 59l-143 -327l-160 32l145 330l-221 47l-145 -330l-160 33l146 330zM416 537l223 -48 l111 254l-224 48z" />
<glyph unicode="$" horiz-adv-x="1118" d="M47 483l189 -12q-3 -117 38 -192.5t142 -112.5l90 424q-94 57 -170 104q-79 53 -116 144t-17 184q36 164 154.5 241.5t301.5 47.5l29 143l103 -22l-31 -144q328 -100 291 -432l-187 18q2 96 -31 157t-108 93l-80 -383l131 -79q115 -73 160 -180.5t22 -211.5 q-36 -175 -160.5 -249.5t-316.5 -47.5l-35 -157l-100 22l33 158q-170 51 -261.5 178.5t-70.5 308.5zM403 993q-9 -43 10 -83t60 -68l76 -47l76 354q-92 10 -148 -31.5t-74 -124.5zM516 139q98 -12 159.5 27t80.5 127q15 71 -21.5 124.5t-134.5 117.5z" />
<glyph unicode="%" horiz-adv-x="1118" d="M84 88l840 1151l172 -37l-840 -1151zM176 1141q26 123 102 181.5t171 39.5q96 -21 141 -105.5t18 -207.5q-26 -124 -101 -183.5t-171 -38.5t-141.5 106t-18.5 208zM307 1000q15 -44 53 -52q39 -8 71.5 25.5t47.5 101.5q13 68 -2.5 113t-52.5 53q-39 8 -71.5 -26.5 t-45.5 -102.5q-15 -68 0 -112zM571 240q26 124 101.5 183t171.5 38t141 -105.5t19 -208.5q-26 -123 -102 -181.5t-171 -37.5q-96 21 -141.5 105t-18.5 207zM700 213q-13 -68 2.5 -112.5t53.5 -53.5q39 -8 71 26.5t45 102.5q15 68 0 112t-53 52q-39 8 -71.5 -25.5 t-47.5 -101.5z" />
<glyph unicode="&#x26;" horiz-adv-x="1314" d="M14 414q20 94 90 166.5t166 109.5q80 32 207 68l-28 78q-37 116 -13 231q19 88 80 148t143 81t168 2q132 -28 203.5 -130t42.5 -236q-36 -177 -252 -266q-13 -4 -44 -15.5t-50 -17.5l86 -230l285 177l98 -162l-317 -191q13 -35 21 -54.5t24 -46.5t37 -42t49 -21 q61 -12 149 19l19 -170q-104 -46 -217 -23q-109 25 -162 79.5t-90 156.5q-223 -133 -416 -92q-158 32 -235.5 128.5t-43.5 252.5zM225 389q-15 -70 18.5 -117t100.5 -59q23 -5 46.5 -5.5t44 2t45 10.5t42.5 15t42.5 20t40 22t40.5 24l-102 283q-116 -28 -203 -68 q-44 -21 -75 -54.5t-40 -72.5zM631 1026q-17 -84 12 -164l19 -55q36 10 96 31q50 19 87.5 53.5t45.5 79.5q13 58 -14 100t-80 53q-56 11 -105.5 -15.5t-60.5 -82.5z" />
<glyph unicode="'" horiz-adv-x="653" d="M289 834l100 473l213 -45l-207 -451z" />
<glyph unicode="(" horiz-adv-x="835" d="M100 415.5q2 127.5 27 243.5q41 195 148 384.5t268.5 342t343.5 220.5l67 -148q-230 -107 -398 -333.5t-228 -508.5q-60 -281 1.5 -557t229.5 -467l-123 -106q-84 82 -149.5 192t-106.5 231t-61.5 250t-18.5 256.5z" />
<glyph unicode=")" horiz-adv-x="751" d="M-164 -260q231 107 399.5 334t227.5 508q60 280 -1.5 556.5t-228.5 469.5l123 104q84 -82 149.5 -191.5t106 -230.5t61.5 -250t18.5 -256.5t-27.5 -242.5q-41 -195 -148 -385t-268 -343t-342 -221z" />
<glyph unicode="*" horiz-adv-x="1148" d="M309 1014l262 84l-204 186l94 105l205 -187l57 271l137 -29l-59 -270l264 86l43 -134l-264 -86l207 -184l-95 -104l-204 184l-58 -268l-135 28l55 269l-262 -84z" />
<glyph unicode="+" horiz-adv-x="1132" d="M150 680l32 160l355 -74l79 379l168 -37l-79 -379l352 -74l-35 -159l-352 73l-80 -379l-168 37l80 379z" />
<glyph unicode="," horiz-adv-x="632" d="M37 -129q82 -3 129.5 19.5t60.5 84.5q-3 1 -13.5 2t-18.5 3q-59 12 -90.5 59.5t-18.5 105.5q12 58 59.5 88.5t106.5 18.5q156 -35 108 -248q-52 -253 -323 -244v111z" />
<glyph unicode="-" horiz-adv-x="894" d="M160 528l37 172l557 -118l-37 -172z" />
<glyph unicode="." horiz-adv-x="669" d="M94 156q12 60 63 94t111 22q60 -14 93 -66t20 -112q-12 -60 -63 -93t-111 -19q-60 12 -93 63t-20 111z" />
<glyph unicode="/" horiz-adv-x="1126" d="M180 39l803 1356l164 -35l-803 -1356z" />
<glyph unicode="0" horiz-adv-x="1130" d="M139 462.5q-4 128.5 29 274.5q63 298 214 453.5t353 112.5q101 -21 172.5 -86t106 -163.5t39 -225.5t-28.5 -273q-63 -299 -215 -457t-354 -116q-101 22 -172 88t-105.5 165t-38.5 227.5zM354.5 335.5q29.5 -143.5 139.5 -167.5q112 -23 194.5 92.5t128.5 337.5 q49 213 19.5 353.5t-140.5 164.5q-112 24 -194 -89t-129 -335q-48 -213 -18.5 -356.5z" />
<glyph unicode="1" horiz-adv-x="1144" d="M80 94l39 176l297 -63l157 745l-237 52l31 137q129 -14 234 27t169 130l86 -18l-238 -1116l306 -64l-37 -176z" />
<glyph unicode="2" horiz-adv-x="1118" d="M-12 109l14 65l463 336q135 100 223.5 193.5t108.5 189.5q20 91 -20 155.5t-130 84.5q-170 36 -252 -185l-196 78q55 162 182.5 241.5t310.5 41.5q174 -38 266 -162.5t56 -292.5q-51 -242 -350 -451l-279 -196l518 -109l-37 -178z" />
<glyph unicode="3" horiz-adv-x="1122" d="M96 532l195 -71q-38 -111 16 -196.5t174 -110.5q66 -11 123.5 -2t102 52.5t59.5 114.5q43 211 -221 273l10 186q130 -23 198 8.5t87 118.5t-22 149t-128 81t-147.5 -22.5t-91.5 -125.5l-195 78q56 149 178 212.5t293 27.5q174 -37 263 -157.5t57 -275.5 q-18 -87 -73.5 -152t-129.5 -95q77 -59 112.5 -152t12.5 -197q-36 -173 -183.5 -252.5t-345.5 -37.5q-215 46 -313.5 191.5t-30.5 354.5z" />
<glyph unicode="4" horiz-adv-x="1126" d="M35 371l14 67l604 869l346 -74l-178 -842l176 -37l-39 -180l-176 37l-55 -258l-205 43l56 260zM311 500l305 -64l154 727h-4z" />
<glyph unicode="5" horiz-adv-x="1118" d="M90 453l209 -13q-9 -107 39 -187t145 -101q113 -24 195.5 31.5t109.5 181.5q25 119 -26.5 204.5t-159.5 108.5q-59 13 -125.5 2t-109.5 -43l-170 100l239 609l654 -140l-39 -182l-484 102l-118 -286q111 23 219 0q190 -40 276 -183.5t47 -328.5q-43 -201 -188 -295 t-350 -51q-189 41 -287 170.5t-76 300.5z" />
<glyph unicode="6" horiz-adv-x="1124" d="M121 420q6 149 41 297q19 89 45 167.5t64 153t85.5 127.5t109 92.5t134 48t160.5 -7.5q178 -37 259.5 -154.5t67.5 -281.5l-210 10q10 222 -156 256q-66 14 -122.5 -8.5t-97.5 -75t-70 -117.5t-50 -147q125 62 264 35q85 -19 155 -62.5t119 -109t66.5 -150.5t-2.5 -186 q-27 -130 -108.5 -214t-187 -110.5t-220.5 -2.5q-159 33 -255.5 150.5t-90.5 289.5zM332 446q-26 -124 24.5 -205.5t145.5 -101.5q60 -13 115.5 4.5t100 70.5t62.5 136q26 123 -24.5 203t-145.5 100q-95 22 -173.5 -31t-104.5 -176z" />
<glyph unicode="7" horiz-adv-x="1103" d="M106 88q139 333 325.5 570.5t436.5 402.5l2 10l-632 135l36 176l943 -200l-19 -82q-239 -169 -389 -315t-261.5 -318.5t-217.5 -425.5z" />
<glyph unicode="8" horiz-adv-x="1130" d="M121 465q20 95 83.5 166t153.5 108q-53 61 -75 136.5t-4 154.5q32 153 160 230.5t294 42.5q168 -35 253.5 -158.5t53.5 -276.5q-18 -79 -69 -139.5t-123 -93.5q67 -68 96.5 -160t9.5 -186q-37 -174 -178 -259.5t-323 -47.5q-119 25 -203 95.5t-118.5 172t-10.5 215.5z M324 422q-22 -96 25 -169t143 -93q94 -22 166 26t94 146q21 98 -27.5 173.5t-140.5 96.5q-89 19 -164 -30t-96 -150zM481 987q-19 -79 22 -140.5t118 -76.5q79 -17 139.5 22.5t77.5 118.5q15 77 -24.5 137.5t-117.5 77.5t-139 -22.5t-76 -116.5z" />
<glyph unicode="9" horiz-adv-x="1124" d="M96 422l211 -8q-10 -221 156 -258q66 -14 123 8.5t97.5 74.5t70 118t49.5 147q-123 -63 -262 -33q-85 18 -155.5 61t-119 108.5t-66.5 150.5t3 186q27 130 108 214.5t186.5 111.5t219.5 2q158 -33 255 -151t91 -288q-6 -137 -39 -297q-16 -77 -38 -145.5t-52 -134.5 t-67 -118t-83.5 -95.5t-100.5 -66.5t-119.5 -32t-139.5 9q-177 38 -259 155.5t-69 280.5zM403 934q-25 -123 25.5 -203t144.5 -100q95 -20 175 33t106 176q25 123 -25.5 204t-144.5 101q-95 21 -174.5 -33.5t-106.5 -177.5z" />
<glyph unicode=":" horiz-adv-x="692" d="M141 156q12 60 63 94t111 22q60 -14 93 -66t20 -112q-12 -60 -63 -92t-111 -20t-93 63t-20 111zM293 870q12 61 63 95t111 22q61 -12 94 -63.5t21 -112.5q-13 -61 -64.5 -94t-111.5 -21t-92.5 63t-20.5 111z" />
<glyph unicode=";" horiz-adv-x="655" d="M84 -127q82 -2 129.5 21.5t60.5 85.5q-18 0 -32 4q-59 12 -90 58.5t-19 104.5q12 60 59.5 90.5t106.5 18.5q157 -35 109 -248q-52 -253 -324 -244v109zM287 870q12 61 63 95t111 22q61 -12 93.5 -63.5t20.5 -112.5q-13 -61 -64.5 -94t-111.5 -21t-92 63t-20 111z" />
<glyph unicode="&#x3c;" />
<glyph unicode="=" horiz-adv-x="1130" d="M127 459l35 164l819 -174l-35 -164zM213 864l35 164l819 -174l-35 -164z" />
<glyph unicode="&#x3e;" />
<glyph unicode="?" horiz-adv-x="921" d="M170 164q12 60 60 90t108 18q61 -14 92.5 -61.5t18.5 -106.5q-12 -61 -59.5 -90.5t-108.5 -15.5q-60 12 -92 59t-19 107zM184 1243q59 131 173.5 186.5t283.5 18.5q174 -36 267.5 -158t60.5 -282q-15 -70 -49 -128.5t-77 -99t-92 -76.5t-97 -69t-89.5 -67t-72.5 -80 t-43 -101l-170 35q15 70 46.5 130t71 103t84 81.5t88 73t81 68.5t65.5 78t39 93q17 87 -23.5 147t-132.5 80q-164 35 -238 -125z" />
<glyph unicode="@" />
<glyph unicode="A" horiz-adv-x="1435" d="M-61 158l886 1278l197 -43l295 -1528l-223 47l-82 444l-594 127l-254 -372zM543 666l428 -91l-103 578z" />
<glyph unicode="B" horiz-adv-x="1419" d="M113 117l297 1403l567 -121q187 -39 285 -170q72 -95 71 -215q0 -45 -10 -94q-18 -80 -69.5 -140.5t-116.5 -89.5q85 -67 125 -175q25 -68 25 -139q0 -43 -9 -87q-39 -183 -182 -267q-98 -57 -218 -57q-56 0 -116 12zM371 268l420 -88q31 -7 59 -6q62 0 115 30 q77 46 98 144q6 27 6 53q0 63 -37 115q-52 73 -149 94l-420 90zM504 895l336 -70q39 -9 73 -9q53 0 99 22q74 36 94 127q5 24 5 47q0 60 -38 106q-52 62 -151 84l-338 72z" />
<glyph unicode="C" horiz-adv-x="1431" d="M145 848q45 209 162 358q117 150 287 212q104 38 215 37q71 0 145 -15q237 -51 371 -206q126 -145 125 -343v-27l-229 19v9q0 128 -79 223q-82 98 -231 130q-48 10 -93 10q-80 0 -152 -31q-114 -49 -192.5 -159t-111.5 -264q-18 -78 -18 -151q0 -35 4 -69 q12 -105 52.5 -189t115.5 -142.5t174 -79.5q55 -12 105 -12q89 0 163 36q117 56 170 185l220 -78q-84 -203 -272 -290q-119 -55 -257 -55q-81 0 -170 19q-192 41 -323 167q-130 128 -178 312q-25 95 -25 197q0 95 22 197z" />
<glyph unicode="D" horiz-adv-x="1560" d="M113 125l299 1403l475 -101q151 -32 272.5 -109t198.5 -189q78 -111 106 -253q13 -64 13 -131q0 -83 -19 -172q-45 -212 -172 -352.5t-305 -190.5q-96 -27 -199 -27q-89 0 -182 20zM371 279l247 -54q72 -15 139 -15q147 0 263 72q170 105 219 336q15 69 15 132 q0 149 -83 267q-118 167 -352 218l-233 49z" />
<glyph unicode="E" horiz-adv-x="1239" d="M111 98l297 1403l892 -190l-40 -199l-678 145l-78 -368l567 -121l-43 -199l-567 121l-92 -438l690 -148l-41 -198z" />
<glyph unicode="F" horiz-adv-x="1097" d="M106 86l300 1403l858 -182l-41 -199l-643 137l-80 -377l477 -102l-41 -199l-479 103l-133 -629z" />
<glyph unicode="G" horiz-adv-x="1591" d="M176 850q46 216 167.5 364.5t294.5 206.5q100 33 208 33q80 0 164 -18q232 -50 358 -186q123 -135 123 -314v-6l-217 10q-16 118 -86 194.5t-219 108.5q-55 12 -107 12q-142 0 -256 -89q-156 -122 -207 -363q-19 -79 -19 -154q0 -32 4 -63q11 -106 50.5 -191t116 -145 t178.5 -82q48 -10 92 -10q112 0 205 62q129 88 162 245l12 61l-393 84l43 199l598 -127l-170 -799l-176 37l24 170l-16 4q-134 -128 -315 -128q-60 0 -125 14q-193 41 -321.5 170.5t-172.5 311.5q-21 92 -21 190q0 96 21 198z" />
<glyph unicode="H" horiz-adv-x="1536" d="M113 125l299 1403l217 -45l-123 -568l659 -139l119 567l219 -47l-299 -1402l-217 47l137 637l-659 139l-133 -637z" />
<glyph unicode="I" horiz-adv-x="622" d="M100 35l299 1401l217 -45l-299 -1403z" />
<glyph unicode="J" horiz-adv-x="905" d="M-35 371l217 -6v-9q0 -58 22 -104q25 -51 75 -62q21 -5 39 -5t33 3.5t27.5 12.5t23 20.5t19.5 29.5t16.5 37t15.5 47t14 54.5t14 63.5l203 954l217 -47l-207 -977q-49 -227 -157 -324q-76 -69 -194 -69q-48 0 -103 12q-146 31 -214 132q-62 90 -62 209q0 14 1 28z" />
<glyph unicode="K" horiz-adv-x="1363" d="M111 113l299 1403l217 -48l-131 -612l18 -4l731 485l279 -59l-797 -533l582 -888l-293 63l-531 799l-18 4l-139 -657z" />
<glyph unicode="L" horiz-adv-x="1204" d="M106 90l300 1403l215 -47l-254 -1200l690 -148l-43 -200z" />
<glyph unicode="M" horiz-adv-x="2027" d="M113 178l297 1403l385 -82l135 -997q18 -132 28 -258q96 167 129 219l529 862l371 -78l-297 -1403l-217 45l260 1221l-13 2l-698 -1126l-240 51l-188 1315l-12 2l-258 -1219z" />
<glyph unicode="N" horiz-adv-x="1597" d="M115 137l297 1403l211 -45l505 -1190l13 -4l221 1036l215 -45l-297 -1403l-211 45l-506 1190l-12 2l-221 -1036z" />
<glyph unicode="O" horiz-adv-x="1626" d="M178 858q44 209 167 357t299 209q105 36 218 36q76 0 154 -16q196 -41 332 -168q134 -128 186 -314q28 -100 28 -207q0 -92 -20 -188q-27 -125 -83.5 -231t-135.5 -181.5t-178 -124.5t-209 -60q-36 -4 -73 -4q-77 0 -158 16q-196 41 -331 168q-136 126 -188 312 q-28 100 -28 209q0 91 20 187zM401 811q-17 -78 -17 -150q0 -141 64 -259q98 -178 300 -220q52 -11 102 -12q141 0 259 92q160 122 210 352q17 79 17 151q0 139 -64 257q-97 178 -299 221q-52 11 -102 11q-141 0 -259 -90q-160 -122 -211 -353z" />
<glyph unicode="P" horiz-adv-x="1175" d="M106 96l300 1401l458 -96q186 -40 282 -186q68 -103 68 -226q0 -51 -12 -106q-40 -187 -186 -281q-102 -65 -224 -65q-52 0 -108 12l-244 51l-116 -551zM483 799l228 -49q27 -6 53 -6q66 0 122 37q79 51 99 147q6 29 6 56q0 66 -36 121q-51 78 -146 99l-229 49z" />
<glyph unicode="Q" horiz-adv-x="1628" d="M178 856q44 209 167 358t299 210q105 36 218 36q75 0 154 -16q195 -41 330.5 -169t187.5 -313q28 -102 28 -210q0 -90 -20 -185q-33 -153 -108.5 -273.5t-184.5 -199.5l164 -291l-184 -102l-162 297q-101 -34 -207 -34q-76 0 -155 18q-196 41 -332 168t-187 312 q-28 101 -28 207q0 91 20 187zM400 524q33 -133 124 -224t224 -120q50 -11 99 -11q79 0 153 29q119 46 202.5 155t116.5 261q17 79 17 151q0 140 -64 257q-97 178 -299 221q-50 11 -99 11q-79 0 -154 -29q-119 -46 -202.5 -155t-116.5 -261q-17 -76 -17 -148q0 -70 16 -137z " />
<glyph unicode="R" horiz-adv-x="1312" d="M111 104l297 1401l483 -102q189 -40 285 -177q69 -98 68 -219q0 -49 -11 -102q-31 -149 -128 -232.5t-251 -92.5l320 -703l-246 53l-310 684l-165 35l-125 -592zM496 850l243 -53q41 -9 77 -9q60 0 106 24q74 40 96 140q6 29 6 55q0 64 -36 111q-52 66 -161 90l-245 52z " />
<glyph unicode="S" horiz-adv-x="1259" d="M94 530l213 -14v-14q-1 -138 55 -221q58 -87 211 -119q48 -10 90 -10q65 0 113 24q80 40 103 146q4 21 4 41q-1 37 -15 70q-22 50 -74.5 93.5t-152.5 102.5q-179 107 -225 137q-88 58 -130 158q-27 66 -28 133q0 35 8 71q40 192 184 278q93 55 216 55q68 0 145 -17 q399 -84 399 -427q0 -34 -4 -71l-211 19v10q0 124 -48 192q-50 71 -177 99q-42 9 -77 9q-66 0 -112 -30q-71 -46 -94 -147q-3 -15 -4 -30q-1 -32 15 -62q22 -44 67 -74q54 -36 166 -100.5t168 -100.5q129 -83 179 -201q33 -79 32 -156q0 -39 -8 -79q-44 -205 -198 -285 q-95 -49 -221 -49q-79 0 -171 19q-102 21 -184.5 69.5t-139.5 118.5q-56 68 -82 162q-17 62 -16 130q0 34 4 70z" />
<glyph unicode="T" horiz-adv-x="1185" d="M182 1337l43 199l1161 -248l-40 -198l-474 102l-256 -1204l-217 45l256 1204z" />
<glyph unicode="U" horiz-adv-x="1593" d="M225 655l189 883l219 -47l-184 -862q-10 -48 -10 -93q1 -106 57 -194q80 -126 241 -160q49 -11 94 -10q105 0 197 56q130 82 164 243l184 862l209 -45l-186 -882q-35 -164 -139 -274t-252 -148q-76 -20 -157 -19q-76 0 -157 17q-167 36 -285 130t-168 236q-30 84 -30 177 q0 63 14 130z" />
<glyph unicode="V" horiz-adv-x="1341" d="M199 1559l239 -52l226 -1124l653 938l229 -49l-907 -1288l-121 26z" />
<glyph unicode="W" horiz-adv-x="1955" d="M242 1612l237 -51l127 -1002l473 875l195 -41l88 -994l522 863l225 -48l-806 -1308l-121 24l-97 1074l-532 -938l-121 24z" />
<glyph unicode="X" horiz-adv-x="1275" d="M-121 152l694 610l-311 774l262 -55l221 -566l465 418l260 -55l-645 -567l334 -832l-262 55l-244 623l-516 -461z" />
<glyph unicode="Y" horiz-adv-x="1204" d="M182 1550l258 -55l254 -684l504 522l250 -53l-686 -694l-127 -598l-217 47l125 581z" />
<glyph unicode="Z" horiz-adv-x="1255" d="M-39 131l23 107l1005 936l-670 141l43 196l990 -211l-23 -102l-1007 -938l804 -172l-41 -197z" />
<glyph unicode="[" horiz-adv-x="802" d="M6 -342l420 1972l453 -96l-35 -166l-275 57l-348 -1640l275 -57l-37 -166z" />
<glyph unicode="\" horiz-adv-x="1218" d="M424 1524l162 -35l182 -1565l-164 35z" />
<glyph unicode="]" horiz-adv-x="802" d="M-37 -332l35 166l274 -57l349 1640l-275 58l37 167l453 -96l-420 -1974z" />
<glyph unicode="_" horiz-adv-x="1112" d="M-150 -154l33 148l1032 -219l-30 -150z" />
<glyph unicode="`" horiz-adv-x="872" d="M395 1610l262 -56l117 -383l-123 27z" />
<glyph unicode="a" horiz-adv-x="1132" d="M72 362q52 242 424 263l274 16q11 52 11 93q0 54 -19 89q-33 62 -131 82q-36 8 -66 8q-131 0 -168 -149l-190 65q44 157 162 213q71 34 161 34q59 0 127 -15q193 -40 275 -140q56 -68 57 -174q0 -49 -12 -106l-70 -328q-47 -218 -47 -373v-18l-184 39q-8 43 -8 89 q0 23 2 48l-15 2q-69 -59 -163 -85q-52 -14 -104 -14q-42 0 -85 9q-136 30 -198 124q-42 64 -42 147q0 38 9 81zM272 309q-3 -14 -3 -28q0 -37 24 -66q33 -40 90 -51q38 -9 73 -8q86 0 148 52q88 74 121 220l14 68l-121 -19q-13 -2 -55 -8t-58 -9t-52.5 -10.5t-53 -14.5 t-43 -19.5t-40 -26.5t-26.5 -34.5t-18 -45.5z" />
<glyph unicode="b" horiz-adv-x="1253" d="M86 121l305 1431l203 -43l-111 -526l11 -2q60 52 148 76q51 14 99 14q37 0 72 -8q102 -22 175.5 -79.5t111.5 -140.5t48 -189q2 -27 2 -55q0 -80 -20 -167q-52 -241 -197 -365q-108 -92 -248 -92q-49 0 -101 11q-84 18 -154.5 75.5t-103.5 128.5l-11 3l-28 -115zM399 588 q-15 -71 -15 -132q0 -82 28 -146q49 -110 180 -138q28 -6 55 -6q86 0 155 64q90 84 124 245q14 67 14 126q0 83 -28 149q-48 112 -169 139q-33 7 -63 7q-90 0 -156 -60q-90 -80 -125 -248z" />
<glyph unicode="c" horiz-adv-x="1132" d="M125 618q52 242 207 364q113 89 258 89q54 0 112 -12q172 -37 270 -156q90 -109 90 -255q0 -13 -1 -27l-215 16q0 204 -176 242q-30 6 -58 6q-34 1 -66 -9q-58 -18 -100 -61.5t-71 -104t-45 -135.5q-14 -61 -14 -119v-24q4 -70 23.5 -125t65.5 -95t113 -54q31 -7 60 -6 q58 0 104 26q69 40 106 135l205 -71q-58 -158 -200 -228q-92 -45 -199 -45q-58 0 -121 13q-215 45 -307 219q-59 111 -60 251q0 79 19 166z" />
<glyph unicode="d" horiz-adv-x="1257" d="M108 395q-2 27 -2 54q0 80 21 167q51 242 197 366q109 93 249 92q49 0 101 -11q83 -17 153.5 -75t104.5 -130l10 -2l111 526l204 -43l-305 -1431l-198 41l20 119l-10 2q-61 -54 -149 -78q-51 -14 -100 -14q-36 0 -71 8q-103 22 -177 79.5t-111.5 141t-47.5 188.5z M330 573q-14 -68 -14 -126q0 -83 28 -149q48 -112 168 -138q33 -7 63 -7q89 0 157 61q90 81 126 247q15 72 15 132q-1 83 -29 147q-50 110 -178 137q-28 6 -55 6q-86 1 -155 -63q-90 -84 -126 -247z" />
<glyph unicode="e" horiz-adv-x="1177" d="M120 328q-12 60 -12 127q0 78 17 166q52 243 208 364q114 88 261 89q55 0 115 -13q140 -30 230 -123q89 -94 115 -227q12 -60 12 -126q0 -81 -17 -171l-13 -62l-721 154q-8 -37 -8 -72q0 -78 40 -147q58 -100 171 -125q36 -8 69 -8q51 0 93 20q68 32 123 115l196 -74 q-87 -149 -221 -209q-82 -37 -179 -36q-60 0 -126 14q-143 30 -235 122t-118 222zM350 668l514 -109q8 38 8 73q0 75 -36 138q-54 91 -170 115q-31 7 -60 7q-77 0 -142 -47q-89 -64 -114 -177z" />
<glyph unicode="f" horiz-adv-x="821" d="M143 43l185 866l-178 39l30 148l178 -37q14 63 27 110.5t32 92.5t41 75t52.5 54t67.5 34.5t85 10.5t107 -13q95 -19 154 -61l-64 -162q-58 37 -106 49q-21 4 -39.5 4t-33 -3.5t-27 -13t-22 -19.5t-18 -28t-15 -33.5t-13.5 -41t-11.5 -46t-11.5 -52.5l266 -58l-30 -147 l-267 55l-184 -866z" />
<glyph unicode="g" horiz-adv-x="1222" d="M72 94l186 -80q-3 -13 -3 -25q0 -48 41 -85q50 -47 148 -68q41 -9 78 -9q74 0 126 37q79 55 106 185l22 98l-14 5q-59 -53 -145 -78q-50 -14 -98 -14q-35 0 -70 8q-203 42 -287 202q-54 101 -54 231q0 76 19 163q50 232 192 344q103 80 238 80q51 0 107 -11 q83 -18 152.5 -76t101.5 -129l16 -4l16 119l207 -45l-207 -973q-40 -190 -188 -269q-96 -53 -215 -53q-64 0 -133 15q-204 44 -305 159q-62 70 -62 157q0 55 25 116zM332 621q-13 -62 -13 -114q0 -81 30 -141q50 -99 169 -124q36 -8 68 -8q82 0 144 50q88 70 120 226 q14 64 14 118q0 78 -30 136q-49 99 -179 127q-30 6 -57 6q-81 0 -146 -54q-88 -73 -120 -222z" />
<glyph unicode="h" horiz-adv-x="1216" d="M86 98l303 1434l205 -45l-113 -535l8 -2q77 64 153 88q40 12 87 12q41 0 88 -10q86 -18 145 -62.5t85 -105.5t32 -138q1 -18 1 -36q0 -60 -15 -123l-139 -655l-205 43l137 651q8 38 8 72q0 55 -22 96q-36 67 -129 88q-34 7 -64 7q-79 0 -135 -48q-76 -66 -104 -196 l-123 -578z" />
<glyph unicode="i" horiz-adv-x="561" d="M76 33l217 1022l205 -43l-217 -1022zM330 1362q10 53 56 82q33 21 71 21q14 0 30 -3q53 -12 83 -56q22 -33 23 -72q0 -13 -3 -27q-10 -55 -56 -84q-33 -21 -71 -21q-15 0 -31 4q-54 11 -84 56q-21 32 -21 69q0 15 3 31z" />
<glyph unicode="j" horiz-adv-x="555" d="M-274 -236l63 164q63 -34 107 -43q23 -5 43 -5q51 0 78 32q38 44 59 147l211 994l205 -43l-220 -1028q-38 -180 -126 -250q-58 -45 -151 -45q-48 0 -106 12q-90 17 -163 65zM324 1358q10 55 56 84q32 20 69 20q15 0 32 -4q54 -11 83 -56q23 -33 23 -72q0 -13 -3 -27 q-12 -54 -58 -83q-33 -21 -71 -21q-14 0 -29 3q-54 12 -84 57q-21 32 -21 69q0 15 3 30z" />
<glyph unicode="k" horiz-adv-x="1126" d="M84 90l305 1432l205 -43l-168 -785l12 -2l453 293l256 -53l-518 -336l348 -696l-246 51l-264 538l-96 -61l-82 -383z" />
<glyph unicode="l" horiz-adv-x="585" d="M76 33l305 1431l205 -43l-305 -1431z" />
<glyph unicode="m" horiz-adv-x="1824" d="M94 162l217 1022l207 -45l-35 -123l17 -2q76 64 148 88q37 12 81 13q41 0 88 -11q207 -42 252 -242l21 -4q28 24 48 39.5t48 34t53 28.5t55 18q27 7 57 6h7q34 -1 72 -9q85 -18 142.5 -62t81.5 -105q25 -62 30 -138q1 -15 1 -30q0 -62 -16 -128l-139 -655l-205 43 l139 651q10 44 10 80q0 142 -147 172q-20 4 -40 4q-47 0 -95 -23q-68 -33 -121 -96l-149 -702l-205 43l139 651q8 40 8 75q0 146 -149 179q-33 7 -62 7q-79 -1 -131 -49q-72 -66 -100 -198l-123 -575z" />
<glyph unicode="n" horiz-adv-x="1216" d="M86 98l217 1022l205 -43l-33 -123l14 -4q77 64 153 88q40 12 87 12q41 0 88 -10q86 -18 145 -62.5t85 -105.5t32 -138q1 -18 1 -36q0 -60 -15 -123l-139 -655l-205 43l137 651q8 38 8 72q0 55 -22 96q-36 67 -129 88q-34 7 -64 7q-79 0 -135 -48q-76 -66 -104 -196 l-123 -578z" />
<glyph unicode="o" horiz-adv-x="1232" d="M129 627q51 239 217 359q120 87 268 88q57 0 117 -13q220 -47 323 -225q69 -119 69 -266q0 -73 -17 -152q-52 -239 -218 -360q-120 -87 -267 -87q-57 0 -119 13q-220 46 -323 224q-68 118 -68 263q0 74 18 156zM338 582q-13 -64 -13 -120q0 -88 32 -157q53 -114 184 -141 q34 -8 66 -7q89 1 159 61q94 82 129 245q13 64 13 120q0 87 -32 156q-53 113 -184 142q-32 7 -62 7q-92 0 -164 -62q-94 -82 -128 -244z" />
<glyph unicode="p" horiz-adv-x="1251" d="M10 -248l291 1372l207 -43l-33 -114l17 -4q58 52 146 77q52 14 102 14q35 0 69 -7q136 -29 221.5 -121t106.5 -222q9 -53 9 -111q0 -83 -18 -177q-52 -242 -198 -367q-109 -93 -249 -93q-49 0 -101 11q-83 18 -153 76t-103 131l-11 2l-100 -467zM397 569 q-16 -72 -16 -133q0 -82 29 -144q49 -108 180 -136q29 -6 56 -6q85 0 154 63q90 83 124 246q14 67 14 125q0 83 -28 150q-49 112 -169 138q-33 7 -63 7q-90 0 -158 -61q-89 -81 -123 -249z" />
<glyph unicode="q" horiz-adv-x="1247" d="M139 627q51 241 197 365q108 94 250 94q48 0 100 -11q84 -18 154.5 -76t103.5 -131l17 -2l16 117l205 -43l-291 -1372l-205 43l100 467l-10 2q-61 -53 -148 -78q-51 -14 -100 -14q-36 0 -71 8q-204 43 -287 218q-51 107 -51 238q0 83 20 175zM342 584q-14 -68 -14 -126 q0 -84 28 -150q48 -112 168 -138q33 -7 63 -7q89 0 156 59q90 80 127 249q15 71 15 131q0 84 -28 148q-48 110 -179 137q-29 6 -56 6q-85 0 -154 -63q-90 -83 -126 -246z" />
<glyph unicode="r" horiz-adv-x="845" d="M80 53l217 1020l201 -41l-33 -174l10 -2q39 79 120 123q57 31 118 31q26 0 53 -6q70 -15 100 -43l-61 -207q-39 28 -92 39q-26 6 -50 6q-29 0 -55 -8q-50 -14 -85.5 -46t-64.5 -78.5t-46.5 -94.5t-28.5 -101l-98 -463z" />
<glyph unicode="s" horiz-adv-x="970" d="M53 354l193 -10v-6q0 -70 42 -122q44 -54 118 -71q30 -6 57 -6q41 0 75 14q56 23 70 89q3 16 3 31q0 38 -22 66q-31 38 -100 79l-147 88q-161 96 -161 255q0 37 9 77q30 143 138 201q70 37 157 38q48 0 103 -12q150 -33 232 -119q68 -72 68 -181q0 -21 -3 -44l-191 8 q1 70 -34.5 115t-100.5 59q-23 5 -44 5q-40 0 -74 -18q-52 -26 -64 -87q-3 -15 -4 -29q1 -31 19 -54q26 -33 83 -67l131 -78q123 -73 172 -157q32 -55 32 -125q0 -38 -9 -80q-31 -149 -151 -206q-75 -36 -167 -36q-55 0 -116 13q-152 34 -239 130q-76 85 -76 206q0 17 1 34z " />
<glyph unicode="t" horiz-adv-x="792" d="M113 967l28 137q39 -7 70 -8t56 8t44 22.5t34 35t27 46t21.5 56t18 64t17.5 70.5q1 3 1 5l168 -37l-72 -332l267 -57l-31 -148l-266 58l-107 -498q-14 -69 -14 -113q-1 -44 25 -74q26 -32 85 -44q31 -7 67 -7q23 0 48 3l-8 -177q-31 -4 -64 -4q-54 0 -114 11 q-170 36 -222 136q-30 58 -30 142q0 61 16 137l113 531z" />
<glyph unicode="u" horiz-adv-x="1220" d="M146 310q-1 18 -1 36q0 60 15 123l139 655l205 -43l-139 -651q-8 -38 -8 -71q1 -55 23 -96q36 -67 130 -87q35 -8 66 -8q77 0 131 48q76 66 104 198l123 575l205 -43l-217 -1022l-201 43l22 125l-10 2q-75 -64 -151 -88q-40 -12 -88 -12q-42 0 -88 10q-85 19 -143.5 63.5 t-84.5 105.5t-32 137z" />
<glyph unicode="v" horiz-adv-x="1046" d="M82 1141l219 -47l133 -705l410 588l213 -45l-668 -944l-82 18z" />
<glyph unicode="w" horiz-adv-x="1548" d="M119 1188l200 -41l87 -696l342 604l202 -43l70 -690l354 600l195 -41l-565 -949l-142 31l-76 774l-387 -676l-143 31z" />
<glyph unicode="x" horiz-adv-x="1030" d="M-78 117l488 446l-232 565l236 -49l149 -377l303 281l234 -49l-459 -420l246 -604l-234 51l-166 412l-331 -307z" />
<glyph unicode="y" horiz-adv-x="1073" d="M-90 -305l61 186q64 -31 88 -35q21 -5 40 -5q32 0 61 13q46 19 79.5 57.5t75.5 106.5l-213 1061l224 -47l145 -792l430 669l213 -45l-649 -970q-30 -42 -54.5 -73t-52.5 -61.5t-54 -50.5t-57 -36t-62.5 -23t-69 -7t-78.5 9q-74 16 -127 43z" />
<glyph unicode="z" horiz-adv-x="1146" d="M-12 98l14 72l707 664l-492 104l37 172l788 -168l-18 -78l-700 -657l550 -117l-36 -172z" />
<glyph unicode="{" />
<glyph unicode="|" horiz-adv-x="837" d="M127 -393l412 1937l188 -39l-412 -1939z" />
<glyph unicode="}" />
<glyph unicode="~" />
<glyph unicode="&#xa2;" horiz-adv-x="1112" />
<glyph unicode="&#xa3;" horiz-adv-x="1204" d="M217 -41l297 1403l217 -47l-256 -1200l692 -148l-43 -200zM500 778l37 172l557 -116l-37 -175z" />
<glyph unicode="&#xa7;" />
<glyph unicode="&#xa8;" horiz-adv-x="1028" d="M483 1288q12 54 58 83t100 18q55 -12 85 -57t19 -99q-12 -55 -57.5 -83.5t-99.5 -16.5q-54 11 -84.5 56t-20.5 99zM901 1198q10 55 56.5 84t101.5 18q55 -12 84.5 -57t17.5 -100q-10 -53 -56 -82.5t-101 -18.5q-54 12 -84.5 57t-18.5 99z" />
<glyph unicode="&#xab;" horiz-adv-x="1116" d="M123 662l362 286l138 -28l-263 -310l115 -389l-139 31zM541 571l362 289l139 -31l-264 -307l115 -389l-137 29z" />
<glyph unicode="&#xad;" horiz-adv-x="894" d="M160 528l37 172l557 -118l-37 -172z" />
<glyph unicode="&#xaf;" />
<glyph unicode="&#xb0;" horiz-adv-x="1081" d="M330 1049q29 135 143 209t248 45q134 -28 208.5 -142.5t45.5 -247.5q-28 -135 -142.5 -209.5t-248.5 -46.5q-133 29 -207.5 143.5t-46.5 248.5zM492 1016q-15 -69 22 -128.5t104 -72.5q67 -15 124.5 23.5t72.5 107.5t-22.5 128.5t-104.5 72.5q-67 15 -124.5 -23.5 t-71.5 -107.5z" />
<glyph unicode="&#xb4;" horiz-adv-x="851" d="M553 1174l262 303l262 -58l-401 -272z" />
<glyph unicode="&#xb7;" horiz-adv-x="761" d="M393 639q12 60 64 94t112 21q60 -12 92.5 -64t20.5 -112t-63 -93t-111 -20q-61 12 -94 62.5t-21 111.5z" />
<glyph unicode="&#xb8;" horiz-adv-x="735" d="M-49 -340l45 92q33 -23 67 -28q51 -11 94.5 9t53.5 68q10 52 -26 89t-91 53l39 80q144 -32 207.5 -96t40.5 -171q-22 -100 -100 -138t-185 -15q-91 19 -145 57z" />
<glyph unicode="&#xb9;" horiz-adv-x="1196" d="M526 690l23 107l170 -37l80 383l-140 31l19 83q71 -9 130 10t91 64l74 -14l-125 -584l172 -37l-23 -106z" />
<glyph unicode="&#xbb;" horiz-adv-x="1116" d="M74 313l264 308l-115 389l137 -29l215 -410l-362 -288zM494 223l262 309l-115 390l139 -31l213 -410l-362 -286z" />
<glyph unicode="&#xc0;" horiz-adv-x="1409" d="M-74 158l226 -47l254 372l593 -127l82 -444l224 -47l-295 1528l-197 43zM530 666l326 487l102 -578zM571 1956l263 -55l116 -383l-123 26z" />
<glyph unicode="&#xc1;" horiz-adv-x="1382" d="M-74 158l887 1278l197 -43l295 -1528l-224 47l-82 444l-593 127l-254 -372zM530 666l428 -91l-102 578zM942 1470l262 304l262 -58l-401 -272z" />
<glyph unicode="&#xc2;" horiz-adv-x="1409" d="M-74 158l226 -47l254 372l593 -127l82 -444l224 -47l-295 1528l-197 43zM530 666l326 487l102 -578zM545 1610l270 278l332 -69l135 -367l-125 27l-201 258l-288 -154z" />
<glyph unicode="&#xc3;" horiz-adv-x="1409" d="M-74 158l226 -47l254 372l593 -127l82 -444l224 -47l-295 1528l-197 43zM530 666l326 487l102 -578zM600 1597q21 106 87 170.5t167 42.5q35 -8 70 -34.5t58 -54t48 -51.5t43 -28q41 -8 69 22t40 77l100 -21q-21 -106 -87 -171.5t-167 -43.5q-35 8 -70 34.5t-58 54.5 t-48 52t-43 27q-41 8 -69 -21.5t-40 -76.5z" />
<glyph unicode="&#xc4;" horiz-adv-x="1394" d="M-74 158l226 -47l254 372l593 -127l82 -444l224 -47l-295 1528l-197 43zM530 666l326 487l102 -578zM625 1681q12 54 57.5 83t99.5 18q55 -12 85.5 -57t19.5 -99q-12 -55 -58 -83.5t-100 -16.5q-54 10 -84.5 55.5t-19.5 99.5zM1042 1591q10 55 56.5 84.5t101.5 18.5 q55 -12 85 -57.5t18 -100.5q-10 -53 -56.5 -82t-101.5 -18q-55 12 -85 56.5t-18 98.5z" />
<glyph unicode="&#xc5;" horiz-adv-x="1409" d="M-74 158l887 1278l197 -43l295 -1528l-224 47l-82 444l-593 127l-254 -372zM530 666l428 -91l-102 578zM688 1720q25 117 124 183t216 41t182.5 -125t40.5 -217q-26 -118 -125.5 -182.5t-216.5 -39.5q-118 25 -182 124t-39 216zM838 1688q-12 -55 18 -102.5t84 -59.5 q56 -11 103 20t57 86q12 57 -18 105.5t-85 58.5q-54 12 -100.5 -19t-58.5 -89z" />
<glyph unicode="&#xc7;" horiz-adv-x="1427" d="M145 848q45 209 162 358t287 211.5t360 22.5q237 -51 371 -206t125 -370l-229 19q3 134 -79 232t-231 130q-131 28 -245.5 -21t-192.5 -159t-111 -264q-26 -115 -13.5 -220t52.5 -189t115 -142.5t174 -79.5q151 -32 268 24.5t170 184.5l220 -78q-83 -203 -271.5 -290 t-427.5 -36q-192 41 -322.5 167.5t-178.5 311t-3 394.5zM336 -328l45 92q33 -23 68 -28q50 -11 93.5 9t53.5 69q10 52 -26 88.5t-91 52.5l39 80q145 -32 208 -95.5t40 -170.5q-22 -100 -100.5 -138.5t-184.5 -15.5q-91 19 -145 57z" />
<glyph unicode="&#xc8;" horiz-adv-x="1220" d="M111 98l297 1403l892 -190l-40 -199l-678 145l-78 -368l567 -121l-43 -199l-567 121l-92 -438l690 -148l-41 -198zM641 1948l262 -56l117 -383l-123 27z" />
<glyph unicode="&#xc9;" horiz-adv-x="1212" d="M111 98l297 1403l892 -190l-40 -199l-678 145l-78 -368l567 -121l-43 -199l-567 121l-92 -438l690 -148l-41 -198zM780 1524l262 303l263 -58l-402 -272z" />
<glyph unicode="&#xca;" horiz-adv-x="1220" d="M111 98l297 1403l892 -190l-40 -199l-678 145l-78 -368l567 -121l-43 -199l-567 121l-92 -438l690 -148l-41 -198zM512 1622l270 279l332 -70l135 -367l-125 27l-200 258l-289 -154z" />
<glyph unicode="&#xcb;" horiz-adv-x="1214" d="M111 98l297 1403l892 -190l-40 -199l-678 145l-78 -368l567 -121l-43 -199l-567 121l-92 -438l690 -148l-41 -198zM666 1636q12 54 57.5 83t99.5 18q55 -12 85.5 -57t19.5 -99q-12 -55 -58 -83.5t-100 -16.5q-54 10 -84.5 55.5t-19.5 99.5zM1083 1546q10 55 56.5 84.5 t101.5 18.5q54 -12 84 -57.5t18 -100.5q-10 -53 -56 -82t-101 -18q-55 12 -85 56.5t-18 98.5z" />
<glyph unicode="&#xcc;" horiz-adv-x="622" d="M100 35l299 1401l217 -45l-299 -1403zM227 2036l262 -56l117 -383l-123 27z" />
<glyph unicode="&#xcd;" horiz-adv-x="548" d="M100 35l299 1401l217 -45l-299 -1403zM600 1548l262 303l262 -57l-401 -272z" />
<glyph unicode="&#xce;" horiz-adv-x="579" d="M100 35l299 1401l217 -45l-299 -1403zM180 1694l271 278l331 -69l136 -367l-125 27l-201 258l-289 -154z" />
<glyph unicode="&#xcf;" horiz-adv-x="565" d="M100 35l299 1401l217 -45l-299 -1403zM332 1708q12 54 57.5 82.5t99.5 17.5q55 -12 85.5 -56.5t19.5 -98.5q-12 -55 -58 -84t-100 -17q-54 10 -84.5 56t-19.5 100zM750 1618q10 55 56 84t101 18q55 -12 85 -57t18 -100q-10 -53 -56.5 -82.5t-101.5 -18.5q-54 12 -84 57 t-18 99z" />
<glyph unicode="&#xd1;" horiz-adv-x="1597" d="M115 137l297 1403l211 -45l505 -1190l13 -4l221 1036l215 -45l-297 -1403l-211 45l-506 1190l-12 2l-221 -1036zM713 1581q21 106 87 170.5t167 42.5q35 -8 70 -34.5t58 -54t48 -51.5t43 -28q41 -8 68.5 21.5t39.5 76.5l101 -20q-21 -106 -87 -171.5t-167 -43.5 q-35 8 -70 34.5t-58 54.5t-48 52t-43 27q-41 8 -69 -21.5t-40 -76.5z" />
<glyph unicode="&#xd2;" horiz-adv-x="1626" d="M178 858q44 209 167 357t299 209t372 20t331.5 -168.5t187 -313t7.5 -395.5q-27 -125 -83.5 -231t-135.5 -181.5t-178 -124.5t-209.5 -60t-230.5 12q-196 41 -331.5 168t-187.5 312.5t-8 395.5zM401 811q-50 -231 47.5 -408.5t299.5 -220.5q201 -43 361 79.5t210 352.5 q50 231 -47 408.5t-299 220.5q-201 43 -361.5 -79.5t-210.5 -352.5zM780 1919l262 -55l117 -383l-123 26z" />
<glyph unicode="&#xd3;" horiz-adv-x="1626" d="M178 858q44 209 167 357t299 209t372 20t331.5 -168.5t187 -313t7.5 -395.5q-27 -125 -83.5 -231t-135.5 -181.5t-178 -124.5t-209.5 -60t-230.5 12q-196 41 -331.5 168t-187.5 312.5t-8 395.5zM401 811q-50 -231 47.5 -408.5t299.5 -220.5q201 -43 361 79.5t210 352.5 q50 231 -47 408.5t-299 220.5q-201 43 -361.5 -79.5t-210.5 -352.5zM1036 1458l262 303l263 -57l-402 -272z" />
<glyph unicode="&#xd4;" horiz-adv-x="1626" d="M178 858q44 209 167 357t299 209t372 20t331.5 -168.5t187 -313t7.5 -395.5q-27 -125 -83.5 -231t-135.5 -181.5t-178 -124.5t-209.5 -60t-230.5 12q-196 41 -331.5 168t-187.5 312.5t-8 395.5zM401 811q-50 -231 47.5 -408.5t299.5 -220.5q201 -43 361 79.5t210 352.5 q50 231 -47 408.5t-299 220.5q-201 43 -361.5 -79.5t-210.5 -352.5zM670 1591l270 279l332 -70l135 -366l-125 26l-201 258l-288 -153z" />
<glyph unicode="&#xd5;" horiz-adv-x="1626" d="M178 858q44 209 167 357t299 209t372 20t331.5 -168.5t187 -313t7.5 -395.5q-27 -125 -83.5 -231t-135.5 -181.5t-178 -124.5t-209.5 -60t-230.5 12q-196 41 -331.5 168t-187.5 312.5t-8 395.5zM401 811q-50 -231 47.5 -408.5t299.5 -220.5q201 -43 361 79.5t210 352.5 q50 231 -47 408.5t-299 220.5q-201 43 -361.5 -79.5t-210.5 -352.5zM727 1579q21 106 87 170.5t167 42.5q35 -8 70 -34.5t58 -54t48 -51.5t43 -28q41 -8 69 21.5t40 76.5l100 -20q-21 -106 -87 -171.5t-167 -43.5q-35 8 -70 34.5t-58 54.5t-48 52t-43 27q-41 8 -69 -22 t-40 -77z" />
<glyph unicode="&#xd6;" horiz-adv-x="1626" d="M178 858q44 209 167 357t299 209t372 20t331.5 -168.5t187 -313t7.5 -395.5q-27 -125 -83.5 -231t-135.5 -181.5t-178 -124.5t-209.5 -60t-230.5 12q-196 41 -331.5 168t-187.5 312.5t-8 395.5zM401 811q-50 -231 47.5 -408.5t299.5 -220.5q201 -43 361 79.5t210 352.5 q50 231 -47 408.5t-299 220.5q-201 43 -361.5 -79.5t-210.5 -352.5zM696 1741q12 54 58 82.5t100 17.5q55 -12 85 -56.5t19 -98.5q-12 -55 -57.5 -84t-99.5 -17q-54 10 -85 56t-20 100zM1114 1651q10 55 56.5 84t101.5 18q54 -12 84 -57.5t18 -100.5q-10 -53 -56 -82 t-101 -18q-54 12 -84.5 57t-18.5 99z" />
<glyph unicode="&#xd7;" horiz-adv-x="1126" d="M121 455l360 233l-233 359l141 92l234 -361l358 234l92 -142l-360 -233l233 -358l-139 -93l-234 361l-360 -234z" />
<glyph unicode="&#xd9;" horiz-adv-x="1593" d="M225 655l189 883l219 -47l-184 -862q-34 -162 46.5 -287.5t241.5 -159.5q162 -35 291.5 46.5t163.5 242.5l184 862l209 -45l-186 -882q-35 -164 -139 -273.5t-251.5 -148t-314.5 -2.5t-285 130.5t-168 236t-16 306.5zM774 1921l262 -55l117 -383l-123 26z" />
<glyph unicode="&#xda;" horiz-adv-x="1593" d="M225 655l189 883l219 -47l-184 -862q-34 -162 46.5 -287.5t241.5 -159.5q162 -35 291.5 46.5t163.5 242.5l184 862l209 -45l-186 -882q-35 -164 -139 -273.5t-251.5 -148t-314.5 -2.5t-285 130.5t-168 236t-16 306.5zM1038 1458l262 303l263 -57l-402 -272z" />
<glyph unicode="&#xdb;" horiz-adv-x="1593" d="M225 655l189 883l219 -47l-184 -862q-34 -162 46.5 -287.5t241.5 -159.5q162 -35 291.5 46.5t163.5 242.5l184 862l209 -45l-186 -882q-35 -164 -139 -273.5t-251.5 -148t-314.5 -2.5t-285 130.5t-168 236t-16 306.5zM662 1593l270 279l332 -70l135 -366l-125 26 l-201 258l-289 -153z" />
<glyph unicode="&#xdc;" horiz-adv-x="1566" d="M225 655l189 883l219 -47l-184 -862q-34 -162 46.5 -287.5t241.5 -159.5q162 -35 291.5 46.5t163.5 242.5l184 862l209 -45l-186 -882q-35 -164 -139 -273.5t-251.5 -148t-314.5 -2.5t-285 130.5t-168 236t-16 306.5zM442 1798q10 53 56.5 82t101.5 18q54 -12 84 -56.5 t18 -98.5q-10 -55 -56 -84.5t-101 -18.5q-55 12 -85 57.5t-18 100.5zM1399 1593q10 55 55.5 84t99.5 17q55 -10 85.5 -55t19.5 -101q-12 -54 -58 -82.5t-100 -17.5q-54 12 -84 56.5t-18 98.5z" />
<glyph unicode="&#xdd;" horiz-adv-x="1204" d="M182 1550l258 -55l254 -684l504 522l250 -53l-686 -694l-127 -598l-217 47l125 581zM858 1497l262 303l262 -57l-401 -273z" />
<glyph unicode="&#xe0;" horiz-adv-x="1128" d="M70 362q-29 -134 33 -228.5t198 -123.5q95 -21 189 5t163 85l15 -2q-6 -73 6 -137l184 -39q-3 160 47 391l70 328q38 180 -44.5 280t-275.5 140q-170 37 -288 -19t-162 -213l190 -65q46 184 234 141q98 -20 131 -82t8 -182l-274 -16q-372 -21 -424 -263zM270 309 q5 25 18 45.5t26.5 34.5t40 26.5t43 19.5t53 14.5t52.5 10.5t58 9t55 8l121 19l-14 -68q-32 -145 -120.5 -219.5t-221.5 -44.5q-57 11 -90 51t-21 94zM451 1589l262 -55l116 -383l-122 27z" />
<glyph unicode="&#xe1;" horiz-adv-x="1097" d="M70 362q52 242 424 263l274 16q25 120 -8 182t-131 82q-188 43 -234 -141l-190 65q44 157 162 213t288 19q193 -40 275.5 -140t44.5 -280l-70 -328q-50 -231 -47 -391l-184 39q-12 64 -6 137l-15 2q-69 -59 -163 -85t-189 -5q-136 29 -198 123.5t-33 228.5zM270 309 q-12 -54 21 -94t90 -51q133 -30 221.5 44.5t120.5 219.5l14 68l-121 -19q-13 -2 -55 -8t-58 -9t-52.5 -10.5t-53 -14.5t-43 -19.5t-40 -26.5t-26.5 -34.5t-18 -45.5zM582 1184l262 303l262 -57l-401 -273z" />
<glyph unicode="&#xe2;" horiz-adv-x="1116" d="M70 362q-29 -134 33 -228.5t198 -123.5q95 -21 189 5t163 85l15 -2q-6 -73 6 -137l184 -39q-3 160 47 391l70 328q38 180 -44.5 280t-275.5 140q-170 37 -288 -19t-162 -213l190 -65q46 184 234 141q98 -20 131 -82t8 -182l-274 -16q-372 -21 -424 -263zM270 309 q5 25 18 45.5t26.5 34.5t40 26.5t43 19.5t53 14.5t52.5 10.5t58 9t55 8l121 19l-14 -68q-32 -145 -120.5 -219.5t-221.5 -44.5q-57 11 -90 51t-21 94zM336 1262l270 278l332 -70l135 -366l-125 26l-200 259l-289 -154z" />
<glyph unicode="&#xe3;" horiz-adv-x="1116" d="M70 362q-29 -134 33 -228.5t198 -123.5q95 -21 189 5t163 85l15 -2q-6 -73 6 -137l184 -39q-3 160 47 391l70 328q38 180 -44.5 280t-275.5 140q-170 37 -288 -19t-162 -213l190 -65q46 184 234 141q98 -20 131 -82t8 -182l-274 -16q-372 -21 -424 -263zM270 309 q5 25 18 45.5t26.5 34.5t40 26.5t43 19.5t53 14.5t52.5 10.5t58 9t55 8l121 19l-14 -68q-32 -145 -120.5 -219.5t-221.5 -44.5q-57 11 -90 51t-21 94zM391 1249q21 106 87 170.5t167 42.5q35 -8 70 -34.5t58 -54t48 -51.5t43 -28q41 -8 69 22t40 77l100 -21 q-21 -106 -87 -171.5t-167 -43.5q-35 8 -70 34.5t-58 54.5t-48 52t-43 27q-41 8 -68.5 -21.5t-39.5 -76.5z" />
<glyph unicode="&#xe4;" horiz-adv-x="1107" d="M74 383q-29 -134 33 -228.5t198 -123.5q95 -21 189 5t163 85l15 -2q-6 -73 6 -137l184 -39q-3 160 47 391l70 328q38 179 -44.5 279t-275.5 140q-170 37 -288 -18.5t-162 -212.5l190 -66q23 92 83 127.5t151 14.5q98 -20 131 -82t8 -182l-274 -17q-372 -21 -424 -262z M274 330q5 22 14 40.5t25 32.5t30.5 25t39.5 20t42 15t48 11.5t48 8.5t51 8t49 7l120 18l-14 -67q-32 -145 -120.5 -220t-221.5 -45q-57 11 -90 51.5t-21 94.5zM391 1380q12 54 58 83t100 18q55 -12 85 -57t19 -99q-12 -55 -57.5 -83.5t-99.5 -16.5q-54 11 -84.5 56 t-20.5 99zM809 1290q10 55 56.5 84.5t101.5 18.5q54 -12 84 -57.5t18 -100.5q-10 -53 -56.5 -82t-101.5 -18q-54 12 -84 56.5t-18 98.5z" />
<glyph unicode="&#xe5;" horiz-adv-x="1126" d="M70 362q52 242 424 263l274 16q25 120 -8 182t-131 82q-188 43 -234 -141l-190 65q44 157 162 213t288 19q193 -40 275.5 -140t44.5 -280l-70 -328q-50 -231 -47 -391l-184 39q-12 64 -6 137l-15 2q-69 -59 -163 -85t-189 -5q-136 29 -198 123.5t-33 228.5zM270 309 q-12 -54 21 -94t90 -51q133 -30 221.5 44.5t120.5 219.5l14 68l-121 -19q-13 -2 -55 -8t-58 -9t-52.5 -10.5t-53 -14.5t-43 -19.5t-40 -26.5t-26.5 -34.5t-18 -45.5zM471 1358q25 117 124 182.5t216 40.5t182.5 -125t40.5 -217q-26 -118 -125.5 -182t-216.5 -39 q-118 25 -182 124t-39 216zM621 1325q-12 -55 18 -102.5t84 -59.5q56 -11 103 20.5t57 86.5q12 57 -18 105.5t-85 58.5q-54 12 -100.5 -19.5t-58.5 -89.5z" />
<glyph unicode="&#xe7;" horiz-adv-x="1132" d="M125 618q52 242 207 364t370 77q172 -37 270 -156t89 -282l-215 16q0 204 -176 242q-67 14 -124.5 -3.5t-99.5 -61t-71 -104t-45 -135.5q-17 -73 -13.5 -142.5t23 -125t65.5 -95.5t113 -54q95 -20 164 20.5t106 134.5l205 -71q-58 -158 -200 -228t-320 -32 q-215 45 -307.5 219t-40.5 417zM201 -342l45 92q35 -24 67 -29q51 -11 94.5 9.5t53.5 68.5q10 52 -26 89t-91 53l39 79q145 -32 208 -95.5t40 -170.5q-22 -100 -100 -138t-185 -15q-91 19 -145 57z" />
<glyph unicode="&#xe8;" horiz-adv-x="1177" d="M120.5 328.5q26.5 -130.5 118 -222.5t234.5 -122q171 -37 304.5 22.5t221.5 208.5l-196 74q-55 -84 -123.5 -115.5t-161.5 -11.5q-113 25 -171 125t-32 219l721 -154l13 62q31 164 5.5 297t-115.5 226.5t-230 123.5q-220 45 -376 -76t-208 -364q-31 -162 -4.5 -292.5z M350 668q25 113 114 177t202 40q116 -24 169.5 -115t28.5 -211zM506 1577l262 -55l117 -383l-123 26z" />
<glyph unicode="&#xe9;" horiz-adv-x="1159" d="M120.5 328.5q-26.5 130.5 4.5 292.5q52 243 208 364t376 76q140 -30 230 -123.5t115.5 -226.5t-5.5 -297l-13 -62l-721 154q-26 -119 32 -219t171 -125q93 -20 161.5 11.5t123.5 115.5l196 -74q-88 -149 -221.5 -208.5t-304.5 -22.5q-143 30 -234.5 122t-118 222.5z M350 668l514 -109q25 120 -28.5 211t-169.5 115q-113 24 -202 -40t-114 -177zM608 1188l262 303l263 -57l-402 -273z" />
<glyph unicode="&#xea;" horiz-adv-x="1171" d="M120.5 328.5q26.5 -130.5 118 -222.5t234.5 -122q171 -37 304.5 22.5t221.5 208.5l-196 74q-55 -84 -123.5 -115.5t-161.5 -11.5q-113 25 -171 125t-32 219l721 -154l13 62q31 164 5.5 297t-115.5 226.5t-230 123.5q-220 45 -376 -76t-208 -364q-31 -162 -4.5 -292.5z M350 668q25 113 114 177t202 40q116 -24 169.5 -115t28.5 -211zM362 1255l271 279l332 -70l135 -366l-125 26l-201 258l-289 -153z" />
<glyph unicode="&#xeb;" horiz-adv-x="1159" d="M120.5 328.5q26.5 -130.5 118 -222.5t234.5 -122q171 -37 304.5 22.5t221.5 208.5l-196 74q-55 -84 -123.5 -115.5t-161.5 -11.5q-113 25 -171 125t-32 219l721 -154l13 62q31 164 5.5 297t-115.5 226.5t-230 123.5q-220 45 -376 -76t-208 -364q-31 -162 -4.5 -292.5z M350 668q25 113 114 177t202 40q116 -24 169.5 -115t28.5 -211zM426 1362q12 54 58 82.5t100 17.5q55 -12 85 -56.5t19 -98.5q-12 -55 -58 -84t-100 -17q-54 10 -84.5 56t-19.5 100zM844 1272q10 55 56 84t101 18q55 -12 85 -57t18 -100q-10 -53 -56.5 -82.5t-101.5 -18.5 q-54 12 -84 57t-18 99z" />
<glyph unicode="&#xec;" horiz-adv-x="573" d="M76 33l217 1022l205 -43l-217 -1022zM131 1657l262 -55l117 -383l-123 26z" />
<glyph unicode="&#xed;" horiz-adv-x="501" d="M76 33l217 1022l205 -43l-217 -1022zM358 1206l263 303l262 -57l-402 -272z" />
<glyph unicode="&#xee;" horiz-adv-x="530" d="M70 1319l270 278l332 -69l135 -367l-125 27l-201 258l-288 -154zM76 33l217 1022l205 -43l-217 -1022z" />
<glyph unicode="&#xef;" horiz-adv-x="516" d="M76 33l217 1022l205 -43l-217 -1022zM123 1372q12 54 58 83t100 18q55 -12 85 -57t19 -99q-12 -55 -58 -83.5t-100 -16.5q-54 10 -84.5 55.5t-19.5 99.5zM541 1282q10 55 56 84t101 18q55 -12 85 -57t18 -100q-10 -53 -56.5 -82.5t-101.5 -18.5q-54 12 -84 57t-18 99z " />
<glyph unicode="&#xf1;" horiz-adv-x="1212" d="M86 98l217 1022l205 -43l-33 -123l14 -4q77 64 153.5 87.5t174.5 2.5q86 -18 145 -62.5t85 -105.5t32 -138t-14 -159l-139 -655l-205 43l137 651q22 101 -14 168t-129 88q-122 25 -198.5 -41t-104.5 -196l-123 -578zM465 1243q21 106 87 170.5t167 42.5q35 -8 70 -34.5 t58 -54t48 -51.5t43 -28q41 -8 69 21.5t40 76.5l100 -20q-21 -106 -87 -171.5t-167 -43.5q-35 8 -70 34.5t-58 54.5t-48 52t-43 27q-41 8 -69 -21.5t-40 -76.5z" />
<glyph unicode="&#xf2;" horiz-adv-x="1232" d="M129 627q51 239 216.5 359.5t385.5 74.5q220 -47 323 -225t52 -418q-51 -239 -217.5 -360t-386.5 -74q-220 46 -323 224.5t-50 418.5zM338 582q-34 -163 19 -277t184 -141q131 -29 225.5 53.5t128.5 245.5t-19 276t-184 142q-131 27 -225.5 -55.5t-128.5 -243.5z M487 1583l263 -55l116 -383l-123 26z" />
<glyph unicode="&#xf3;" horiz-adv-x="1212" d="M129 627q51 239 216.5 359.5t385.5 74.5q220 -47 323 -225t52 -418q-51 -239 -217.5 -360t-386.5 -74q-220 46 -323 224.5t-50 418.5zM338 582q-34 -163 19 -277t184 -141q131 -29 225.5 53.5t128.5 245.5t-19 276t-184 142q-131 27 -225.5 -55.5t-128.5 -243.5z M653 1186l262 303l263 -57l-402 -273z" />
<glyph unicode="&#xf4;" horiz-adv-x="1230" d="M129 627q51 239 216.5 359.5t385.5 74.5q220 -47 323 -225t52 -418q-51 -239 -217.5 -360t-386.5 -74q-220 46 -323 224.5t-50 418.5zM338 582q-34 -163 19 -277t184 -141q131 -29 225.5 53.5t128.5 245.5t-19 276t-184 142q-131 27 -225.5 -55.5t-128.5 -243.5z M391 1251l271 279l331 -70l135 -366l-124 26l-201 258l-289 -153z" />
<glyph unicode="&#xf5;" horiz-adv-x="1230" d="M129 627q51 239 216.5 359.5t385.5 74.5q220 -47 323 -225t52 -418q-51 -239 -217.5 -360t-386.5 -74q-220 46 -323 224.5t-50 418.5zM338 582q-34 -163 19 -277t184 -141q131 -29 225.5 53.5t128.5 245.5t-19 276t-184 142q-131 27 -225.5 -55.5t-128.5 -243.5z M446 1239q21 106 87 170.5t167 42.5q45 -10 88 -49.5t76.5 -76.5t55.5 -42q41 -8 68.5 21.5t39.5 76.5l100 -20q-21 -106 -87 -171.5t-167 -43.5q-35 8 -70 34.5t-58 54.5t-48 52t-43 27q-41 8 -68.5 -21.5t-39.5 -76.5z" />
<glyph unicode="&#xf6;" horiz-adv-x="1218" d="M129 627q51 239 216.5 359.5t385.5 74.5q220 -47 323 -225t52 -418q-51 -239 -217.5 -360t-386.5 -74q-220 46 -323 224.5t-50 418.5zM338 582q-34 -163 19 -277t184 -141q131 -29 225.5 53.5t128.5 245.5t-19 276t-184 142q-131 27 -225.5 -55.5t-128.5 -243.5z M459 1348q12 54 57.5 82.5t99.5 17.5q55 -12 85.5 -57t19.5 -99q-12 -55 -58 -83.5t-100 -16.5q-54 10 -84.5 56t-19.5 100zM877 1257q10 55 56 84.5t101 18.5q55 -12 85 -57.5t18 -100.5q-10 -53 -56.5 -82t-101.5 -18q-54 12 -84 56.5t-18 98.5z" />
<glyph unicode="&#xf9;" horiz-adv-x="1222" d="M146 310.5q-6 76.5 14 158.5l139 655l205 -43l-139 -651q-22 -100 14.5 -167t130.5 -87q121 -27 197 39.5t104 198.5l123 575l205 -43l-217 -1022l-201 43l22 125l-10 2q-75 -64 -151.5 -87.5t-175.5 -2.5q-85 19 -143.5 63.5t-84.5 105.5t-32 137.5zM463 1589l262 -55 l117 -383l-123 27z" />
<glyph unicode="&#xfa;" horiz-adv-x="1202" d="M146 310.5q-6 76.5 14 158.5l139 655l205 -43l-139 -651q-22 -100 14.5 -167t130.5 -87q121 -27 197 39.5t104 198.5l123 575l205 -43l-217 -1022l-201 43l22 125l-10 2q-75 -64 -151.5 -87.5t-175.5 -2.5q-85 19 -143.5 63.5t-84.5 105.5t-32 137.5zM657 1151l263 303 l262 -57l-402 -273z" />
<glyph unicode="&#xfb;" horiz-adv-x="1222" d="M146 310.5q-6 76.5 14 158.5l139 655l205 -43l-139 -651q-22 -100 14.5 -167t130.5 -87q121 -27 197 39.5t104 198.5l123 575l205 -43l-217 -1022l-201 43l22 125l-10 2q-75 -64 -151.5 -87.5t-175.5 -2.5q-85 19 -143.5 63.5t-84.5 105.5t-32 137.5zM389 1251l270 279 l332 -70l135 -366l-125 26l-200 258l-289 -153z" />
<glyph unicode="&#xfc;" horiz-adv-x="1196" d="M146 310.5q-6 76.5 14 158.5l139 655l205 -43l-139 -651q-22 -100 14.5 -167t130.5 -87q121 -27 197 39.5t104 198.5l123 575l205 -43l-217 -1022l-201 43l22 125l-10 2q-75 -64 -151.5 -87.5t-175.5 -2.5q-85 19 -143.5 63.5t-84.5 105.5t-32 137.5zM342 1382 q10 54 56 83t102 18q54 -12 83.5 -57t18.5 -99q-12 -54 -58 -83t-100 -17q-54 11 -84 56t-18 99zM958 1251q10 53 56.5 82.5t101.5 18.5q54 -12 84.5 -57t18.5 -99q-10 -54 -57 -83t-101 -17q-54 11 -84.5 56t-18.5 99z" />
<glyph unicode="&#xfd;" horiz-adv-x="993" d="M-90 -305l61 186q64 -31 88 -35q54 -12 100.5 7.5t80 58t75.5 106.5l-213 1061l224 -47l145 -792l430 669l213 -45l-649 -970q-30 -42 -54.5 -73t-52.5 -61.5t-54 -50.5t-57 -36t-62.5 -23t-69 -7t-78.5 9q-74 16 -127 43zM643 1137l262 303l262 -58l-401 -272z" />
<glyph unicode="&#xff;" horiz-adv-x="1001" d="M-90 -305l61 186q64 -31 88 -35q54 -12 100.5 7.5t80 58t75.5 106.5l-213 1061l224 -47l145 -792l430 669l213 -45l-649 -970q-30 -42 -54.5 -73t-52.5 -61.5t-54 -50.5t-57 -36t-62.5 -23t-69 -7t-78.5 9q-74 16 -127 43zM432 1284q12 54 58 82.5t100 17.5 q55 -12 85 -56.5t19 -98.5q-12 -55 -57.5 -84t-99.5 -17q-54 10 -85 56t-20 100zM850 1194q10 55 56.5 84t101.5 18q55 -12 84.5 -57t17.5 -100q-10 -53 -56.5 -82.5t-101.5 -18.5q-54 12 -84 57t-18 99z" />
<glyph unicode="&#x178;" horiz-adv-x="1204" d="M182 1550l258 -55l254 -684l504 522l250 -53l-686 -694l-127 -598l-217 47l125 581zM637 1645q12 54 58 82.5t100 17.5q55 -12 85 -57t19 -99q-12 -55 -58 -83.5t-100 -16.5q-54 10 -84.5 56t-19.5 100zM1055 1554q10 55 56 84.5t101 18.5q55 -12 85 -57.5t18 -100.5 q-10 -53 -56.5 -82t-101.5 -18q-54 12 -84 56.5t-18 98.5z" />
<glyph unicode="&#x2c6;" horiz-adv-x="860" d="M229 1288l271 279l331 -70l136 -367l-125 27l-201 258l-289 -153z" />
<glyph unicode="&#x2dc;" horiz-adv-x="690" d="M207 1292q21 106 87 170.5t167 42.5q35 -8 70 -34.5t58 -54t48 -51.5t43 -28q41 -8 68.5 22t39.5 77l101 -21q-21 -106 -87 -171.5t-167 -43.5q-35 8 -70 34.5t-58 54.5t-48 52t-43 27q-41 8 -69 -21.5t-40 -76.5z" />
<glyph unicode="&#x2000;" horiz-adv-x="1018" />
<glyph unicode="&#x2001;" horiz-adv-x="2036" />
<glyph unicode="&#x2002;" horiz-adv-x="1018" />
<glyph unicode="&#x2003;" horiz-adv-x="2036" />
<glyph unicode="&#x2004;" horiz-adv-x="678" />
<glyph unicode="&#x2005;" horiz-adv-x="509" />
<glyph unicode="&#x2006;" horiz-adv-x="339" />
<glyph unicode="&#x2007;" horiz-adv-x="339" />
<glyph unicode="&#x2008;" horiz-adv-x="254" />
<glyph unicode="&#x2009;" horiz-adv-x="407" />
<glyph unicode="&#x200a;" horiz-adv-x="113" />
<glyph unicode="&#x2010;" horiz-adv-x="894" d="M160 528l37 172l557 -118l-37 -172z" />
<glyph unicode="&#x2011;" horiz-adv-x="894" d="M160 528l37 172l557 -118l-37 -172z" />
<glyph unicode="&#x2012;" horiz-adv-x="894" d="M160 528l37 172l557 -118l-37 -172z" />
<glyph unicode="&#x2013;" horiz-adv-x="1107" d="M16 567l35 164l1051 -223l-35 -164z" />
<glyph unicode="&#x2014;" horiz-adv-x="2301" d="M197 655l34 164l1883 -401l-35 -162z" />
<glyph unicode="&#x2018;" horiz-adv-x="593" d="M311 1192q29 132 110 190.5t214 53.5v-109q-82 2 -129 -21t-60 -85q19 0 33 -4q59 -12 90 -59t19 -105q-12 -59 -60.5 -90t-107.5 -19q-153 35 -109 248z" />
<glyph unicode="&#x2019;" horiz-adv-x="636" d="M330 952v109q81 -3 128.5 19.5t61.5 84.5q-4 1 -15.5 1.5t-19.5 2.5q-58 12 -89 59.5t-19 106.5q12 58 60.5 88.5t107.5 18.5q152 -35 108 -248q-29 -132 -110 -190t-213 -52z" />
<glyph unicode="&#x201c;" horiz-adv-x="1058" d="M315 1241q29 132 110 190.5t214 53.5v-109q-81 2 -128 -21t-60 -85q18 0 32 -4q59 -12 90 -59t19 -105q-12 -60 -60 -90.5t-108 -18.5q-153 35 -109 248zM770 1145q29 132 110.5 190.5t215.5 53.5l-2 -111q-81 3 -128.5 -19.5t-60.5 -84.5q15 0 33 -5q59 -12 90 -58.5 t19 -106.5q-12 -58 -60 -88.5t-108 -18.5q-153 35 -109 248z" />
<glyph unicode="&#x201d;" horiz-adv-x="1101" d="M334 1001v109q82 -2 129.5 21.5t60.5 85.5q-18 0 -32 2q-59 12 -90 59.5t-19 105.5t59.5 88.5t106.5 18.5q156 -32 108 -246q-53 -257 -323 -244zM788 905v109q82 -2 130 21t61 85q-19 0 -33 2q-58 12 -89 59.5t-19 106.5q12 58 59.5 88.5t106.5 18.5q156 -32 108 -248 q-52 -255 -324 -242z" />
<glyph unicode="&#x2022;" horiz-adv-x="1067" d="M326 727q22 102 109.5 159.5t189.5 35.5q101 -23 157.5 -110.5t34.5 -188.5q-22 -103 -109 -160t-190 -35q-101 22 -157.5 109t-34.5 190z" />
<glyph unicode="&#x2026;" horiz-adv-x="2015" d="M111 295q12 60 63 94.5t111 22.5q60 -13 93 -66t21 -113q-13 -60 -64.5 -92t-111.5 -20t-93 63t-19 111zM768 156q12 60 63 94t111 22q60 -14 93 -66t20 -112q-12 -60 -63 -93t-111 -19q-60 12 -93 63t-20 111zM1421 16q14 60 65 94.5t111 22.5q60 -14 93 -66t20 -112 q-12 -60 -63 -93t-111 -20q-60 12 -93.5 63t-21.5 111z" />
<glyph unicode="&#x202f;" horiz-adv-x="407" />
<glyph unicode="&#x2039;" horiz-adv-x="688" d="M117 616l362 287l139 -29l-262 -309l113 -387l-137 29z" />
<glyph unicode="&#x203a;" horiz-adv-x="688" d="M70 268l262 310l-113 387l137 -29l215 -410l-362 -286z" />
<glyph unicode="&#x205f;" horiz-adv-x="509" />
<glyph unicode="&#xe000;" horiz-adv-x="1126" d="M0 0v1126h1126v-1126h-1126z" />
<glyph unicode="&#xfb01;" horiz-adv-x="1292" d="M16 186l185 867l-178 39l30 147l178 -37q14 63 27 110.5t32 92.5t41 75.5t52.5 54.5t67.5 34t85 10.5t107 -12.5q93 -19 154 -62l-64 -162q-60 39 -106 50q-21 4 -39.5 4t-33 -3.5t-27 -13t-22 -19.5t-18 -28t-15 -34t-13.5 -41.5t-11.5 -46t-11.5 -52.5l266 -57 l-30 -148l-266 56l-185 -867zM680 27l217 1022l205 -43l-217 -1022zM934 1356q10 53 56.5 82t101.5 18q54 -12 83.5 -57t18.5 -99q-10 -55 -56.5 -83.5t-101.5 -16.5q-54 11 -84 56t-18 100z" />
<glyph unicode="&#xfb02;" horiz-adv-x="1292" d="M16 186l185 867l-178 39l30 147l178 -37q14 63 27 110.5t32 92.5t41 75.5t52.5 54.5t67.5 34t85 10.5t107 -12.5q93 -19 154 -62l-64 -162q-60 39 -106 50q-21 4 -39.5 4t-33 -3.5t-27 -13t-22 -19.5t-18 -28t-15 -34t-13.5 -41.5t-11.5 -46t-11.5 -52.5l266 -57 l-30 -148l-266 56l-185 -867zM680 27l305 1431l205 -43l-305 -1431z" />
</font>
</defs>
</svg>
